<svg xmlns="http://www.w3.org/2000/svg" xmlns:xlink="http://www.w3.org/1999/xlink" xmlns:lucid="lucid" width="1299" height="511"><g transform="translate(-61 -706)" lucid:page-tab-id="0_0"><path d="M180.74 583c2.2-1.66 5.8-1.66 8 0l72 54c2.2 1.66 2.2 4.34 0 6l-72 54c-2.2 1.66-5.8 1.66-8 0l-72-54c-2.2-1.66-2.2-4.34 0-6z" stroke="#225798" stroke-width="4" fill="#fff"/><use xlink:href="#a" transform="matrix(1,0,0,1,109.73750000000041,585) translate(38.482050781249995 52.208984375)"/><use xlink:href="#b" transform="matrix(1,0,0,1,109.73750000000041,585) translate(36.416621093749995 70.7978515625)"/><path d="M463.74 839.7h36.03c.1 0 .15.06.15.15 0 .08.07.15.16.15h18.53" stroke="#333" stroke-width="2" fill="none"/><path d="M463.76 840.7h-1.1l.08-.96-.02-1.05h1.04z" fill="#333"/><path d="M533.87 840l-14.26 4.64v-9.28z" stroke="#333" stroke-width="2" fill="#333"/><path d="M188.96 806.6c-6.67-3.03-13.86-5.33-21.25-6.6-.1 0-.3.08-.3.16-.94 1.67-1.98 3.73-2.7 5.4-7.93-1.2-15.95-1.2-23.76 0-.73-1.67-1.77-3.73-2.7-5.4-.1-.08-.2-.16-.32-.16-7.5 1.27-14.58 3.5-21.25 6.6l-.1.07c-13.54 20.24-17.2 39.85-15.42 59.3 0 .08.1.16.1.24 8.97 6.6 17.6 10.57 26.05 13.2.1 0 .3 0 .4-.17 2-2.7 3.76-5.56 5.33-8.65.1-.16 0-.4-.2-.4-2.82-1.1-5.53-2.46-8.14-3.9-.22-.15-.22-.4 0-.55.5-.4 1.03-.87 1.56-1.27.1-.08.2-.08.3-.08 17.1 7.78 35.52 7.78 52.4 0 .1 0 .2 0 .3.08.53.4 1.05.88 1.68 1.27.2.16.1.4-.1.56-2.5 1.5-5.2 2.77-8.13 3.8-.1.08-.2.32-.1.48 1.57 3 3.34 5.95 5.32 8.65.1.16.2.16.3.16 8.55-2.63 17.2-6.6 26.05-13.2.1-.07.2-.15.2-.23 2.2-22.46-3.64-42-15.4-59.3l-.1-.08zm-53.43 47.54c-5.1 0-9.38-4.68-9.38-10.48 0-5.8 4.17-10.48 9.38-10.48 5.3 0 9.47 4.77 9.37 10.48 0 5.8-4.17 10.48-9.37 10.48zm34.57 0c-5.1 0-9.26-4.68-9.26-10.48 0-5.8 4.06-10.48 9.26-10.48 5.32 0 9.48 4.77 9.38 10.48 0 5.8-4.06 10.48-9.38 10.48z" stroke="#000" stroke-opacity="0" fill="#5865f2"/><path d="M424.74 806.17c19.88 0 36 15 36 33.52 0 18.5-16.12 33.52-36 33.52h-108c-19.88 0-36-15-36-33.53 0-18.52 16.12-33.53 36-33.53z" stroke="#333" stroke-width="4" fill="#fff"/><use xlink:href="#c" transform="matrix(1,0,0,1,285.7375000000004,811.1651558153781) translate(26.68017578125 25.271484375)"/><use xlink:href="#d" transform="matrix(1,0,0,1,285.7375000000004,811.1651558153781) translate(94.29443359375 25.271484375)"/><use xlink:href="#e" transform="matrix(1,0,0,1,285.7375000000004,811.1651558153781) translate(13.896113281250004 43.8603515625)"/><path d="M204.17 839.7h56.07" stroke="#333" stroke-width="2" fill="none"/><path d="M204.2 840.7h-.83l-.4-2h1.23z" fill="#333"/><path d="M275.5 839.7l-14.26 4.63v-9.27z" stroke="#333" stroke-width="2" fill="#333"/><path d="M612.58 783c2.2-1.66 5.8-1.66 8 0l72 54c2.2 1.66 2.2 4.34 0 6l-72 54c-2.2 1.66-5.8 1.66-8 0l-72-54c-2.2-1.66-2.2-4.34 0-6z" stroke="#225798" stroke-width="4" fill="#fff"/><use xlink:href="#f" transform="matrix(1,0,0,1,541.5823704275961,785) translate(40.20470703125 41.896484375)"/><use xlink:href="#g" transform="matrix(1,0,0,1,541.5823704275961,785) translate(15.432734375000004 60.4853515625)"/><use xlink:href="#h" transform="matrix(1,0,0,1,541.5823704275961,785) translate(34.0391796875 60.4853515625)"/><use xlink:href="#i" transform="matrix(1,0,0,1,541.5823704275961,785) translate(59.4747265625 60.4853515625)"/><use xlink:href="#j" transform="matrix(1,0,0,1,541.5823704275961,785) translate(70.11388671875 79.07421875)"/><path d="M682.95 759.4H668.1l-2.93.4-2.63 1.08-2.3 1.75-1.74 2.3-1.1 2.62-.38 2.92v35.6h-2v-35.73l.44-3.3 1.3-3.13 2.06-2.7 2.7-2.07 3.13-1.3 3.3-.42h15zm78.55 0h-57.1v-2h57.1z" fill="#333"/><path d="M657.02 807.83l-2-1.5v-.28h2zM776.76 758.4l-14.26 4.64v-9.27z" fill="#333"/><path d="M780 758.4l-18.5 6.02V752.4zm-16.5 3.26l10.03-3.25-10.03-3.25z" fill="#333"/><use xlink:href="#k" transform="matrix(1,0,0,1,682.951553466427,749.1116572124992) translate(0.005000000000000782 14.396484375)"/><path d="M761.5 937.4v2h-60.87v-2zm-98.62-11.06l.38 2.92 1.1 2.63 1.75 2.28 2.3 1.75 2.63 1.1.34.04v2.02l-.87-.13-3.12-1.3-2.7-2.07-2.07-2.7-1.3-3.12-.42-3.3v-56.95h2z" fill="#333"/><path d="M662.88 869.55h-2v-.27l2-1.5zM776.76 938.4l-14.26 4.64v-9.27z" fill="#333"/><path d="M780 938.4l-18.5 6.02V932.4zm-16.5 3.26l10.03-3.25-10.03-3.25z" fill="#333"/><use xlink:href="#l" transform="matrix(1,0,0,1,671.3664632614446,929.1116572124992) translate(0.005000000000000782 14.396484375)"/><path d="M780 725c0-2.76 2.24-5 5-5h210c2.76 0 5 2.24 5 5v66.8c0 2.77-2.24 5-5 5H785c-2.76 0-5-2.23-5-5z" stroke="#000" stroke-opacity="0" stroke-width="2" fill="#3278ca"/><use xlink:href="#m" transform="matrix(1,0,0,1,792,732) translate(80.1318359375 21.021484375)"/><use xlink:href="#n" transform="matrix(1,0,0,1,792,732) translate(8.6767578125 39.6103515625)"/><path d="M780 905c0-2.76 2.24-5 5-5h210c2.76 0 5 2.24 5 5v66.8c0 2.77-2.24 5-5 5H785c-2.76 0-5-2.23-5-5z" stroke="#000" stroke-opacity="0" stroke-width="2" fill="#3278ca"/><use xlink:href="#m" transform="matrix(1,0,0,1,792,912) translate(80.1318359375 21.021484375)"/><use xlink:href="#o" transform="matrix(1,0,0,1,792,912) translate(5.94775390625 39.6103515625)"/><path d="M606.74 1003c2.2-1.66 5.8-1.66 8 0l72 54c2.2 1.66 2.2 4.34 0 6l-72 54c-2.2 1.66-5.8 1.66-8 0l-72-54c-2.2-1.66-2.2-4.34 0-6z" stroke="#225798" stroke-width="4" fill="#fff"/><use xlink:href="#p" transform="matrix(1,0,0,1,535.7375000000004,1005) translate(26.22130859375 52.208984375)"/><use xlink:href="#q" transform="matrix(1,0,0,1,535.7375000000004,1005) translate(47.974238281249995 70.7978515625)"/><path d="M100.74 965c0-2.76 2.24-5 5-5h210c2.76 0 5 2.24 5 5v66.8c0 2.77-2.24 5-5 5h-210c-2.76 0-5-2.23-5-5z" stroke="#000" stroke-opacity="0" stroke-width="2" fill="#3278ca"/><use xlink:href="#m" transform="matrix(1,0,0,1,112.73750000000044,972) translate(80.1318359375 21.021484375)"/><use xlink:href="#r" transform="matrix(1,0,0,1,112.73750000000044,972) translate(0.48974609375 39.6103515625)"/><path d="M564.32 997.84l3.12 1.3 2.7 2.07 2.08 2.7 1.3 3.13.43 3.3v14.5h-2v-14.36l-.38-2.92-1.1-2.63-1.75-2.3-2.3-1.74-2.62-1.1-2.92-.37h-42.26v-2h42.4zm-225.08 1.57v-2h63.26v2z" fill="#333"/><path d="M573.95 1025.1l-2 1.5v-1.78h2zM338.24 1003.04l-14.27-4.63 14.27-4.63z" fill="#333"/><path d="M339.24 1004.42l-18.5-6 18.5-6.03zm-12.03-6l10.04 3.24v-6.5z" fill="#333"/><use xlink:href="#s" transform="matrix(1,0,0,1,402.50017192398633,989.1116572124993) translate(0.005000000000002558 14.396484375)"/><path d="M421.57 1139.4h-82.33v-2h82.33zm154.82-12.93l-.44 3.3-1.3 3.13-2.07 2.7-2.7 2.08-3.13 1.3-3.3.43h-46.5v-2h46.36l2.9-.38 2.65-1.1 2.28-1.74 1.76-2.3 1.1-2.62.37-2.92V1097h2z" fill="#333"/><path d="M576.4 1096.74v.28h-2v-1.78zM338.24 1143.04l-14.27-4.63 14.27-4.63z" fill="#333"/><path d="M339.24 1144.42l-18.5-6 18.5-6.03zm-12.03-6l10.04 3.24v-6.5z" fill="#333"/><g><use xlink:href="#t" transform="matrix(1,0,0,1,421.5697216581139,1129.111657212499) translate(0.005000000000002558 14.396484375)"/></g><path d="M100.74 1105c0-2.76 2.24-5 5-5h210c2.76 0 5 2.24 5 5v66.8c0 2.77-2.24 5-5 5h-210c-2.76 0-5-2.23-5-5z" stroke="#000" stroke-opacity="0" stroke-width="2" fill="#3278ca"/><g><use xlink:href="#m" transform="matrix(1,0,0,1,112.73750000000044,1111.9999999999998) translate(80.1318359375 21.021484375)"/><use xlink:href="#u" transform="matrix(1,0,0,1,112.73750000000044,1111.9999999999998) translate(3.78564453125 39.6103515625)"/></g><path d="M890 977.8v70.2c0 6.63-5.37 12-12 12H708.7" stroke="#333" stroke-width="2" fill="none"/><path d="M891 977.84h-2v-1.03h2z" fill="#333"/><path d="M693.45 1060l14.26-4.64v9.28z" stroke="#333" stroke-width="2" fill="#333"/><defs><path fill="#333" d="M488-1365c273 0 550 113 550 360 0 140-81 265-244 374-130 87-276 146-439 180-8 56-16 299-32 372-12 53-47 79-94 79-53 0-99-48-99-101 0-200 54-864 49-1044-37-23-56-56-56-99 0-39 25-69 73-90s145-31 292-31zm348 355c0-132-280-161-454-151-1 136-1 303-1 501 100-31 192-72 276-122 119-70 179-146 179-228" id="v"/><path fill="#333" d="M432-1365c342 0 623 232 623 568 0 219-132 374-395 466 145 90 217 167 217 230 0 52-52 98-104 96-17 0-39-10-66-29-90-65-203-166-304-203v78C403-53 368 0 299 0c-53 0-99-44-99-97v-374c17-145 25-361 25-650-2 5-10 7-24 7-53 2-99-46-99-99 0-112 194-152 330-152zm257 786c221-128 209-317 21-469-89-71-178-111-268-119-1 97-2 329-2 698 90-27 172-66 249-110" id="w"/><path fill="#333" d="M609-1364c323 0 519 229 519 557 0 183-51 357-152 522C860-95 716 0 544 0 271 0 97-283 97-570c0-191 38-362 113-512 95-188 228-282 399-282zm319 550c0-231-116-347-349-347-81 0-151 81-210 243-48 132-72 248-72 348 0 161 47 272 142 333 35 23 69 34 100 34 113 0 208-76 287-229 68-131 102-258 102-382" id="x"/><path fill="#333" d="M925-1365c52 0 103 46 101 97 0 23-38 113-113 270-125 261-227 519-304 774-21 71-38 117-49 139-29 57-63 85-104 85-109-1-156-321-181-456-30-165-184-659-203-805-7-52 44-104 97-104 40 0 72 25 99 73 46 84 66 250 92 370 23 106 68 262 121 471 71-167 173-418 306-754 20-51 35-86 46-104 25-37 55-56 92-56" id="y"/><path fill="#333" d="M270-1365c53 0 101 46 100 99-5 357-80 777-80 1073C290-64 254 0 183 0 132 0 82-50 82-101c0-298 47-662 55-976 2-76 19-138 34-189 19-66 52-99 99-99" id="z"/><path fill="#333" d="M387-1365c369 0 678 217 678 573 0 172-83 346-249 522C647-90 478 0 307 0 194 0 137-80 137-239c0-257 30-558 68-915-53-11-80-43-80-95 0-56 32-93 97-108 26-6 81-8 165-8zm21 204c-15 76-47 491-72 917 0 13 1 27 2 41 116-22 231-92 346-210 120-123 180-241 180-355-1-196-67-277-209-343-74-35-157-50-247-50" id="A"/><path fill="#333" d="M369 0C201 0 119-119 119-294c0-119 26-272 77-457 80-290 99-377 125-524 7-13 27-26 60-41 71-33 211-49 419-49 129 0 193 36 193 107 0 50-48 105-99 101-142-10-258-9-397 20-11 59-34 158-69 297 146-57 246-85 301-85 53 0 100 43 100 96 0 43-23 80-73 99-127 49-178 54-389 129-29 119-44 224-44 314 0 58 10 87 30 87 66 0 151-30 256-90s173-91 205-91c50 0 101 49 101 99 0 30-19 57-51 87C794-129 500 0 369 0" id="B"/><g id="a"><use transform="matrix(0.0087890625,0,0,0.0087890625,0,0)" xlink:href="#v"/><use transform="matrix(0.0087890625,0,0,0.0087890625,9.31640625,0)" xlink:href="#w"/><use transform="matrix(0.0087890625,0,0,0.0087890625,19.2919921875,0)" xlink:href="#x"/><use transform="matrix(0.0087890625,0,0,0.0087890625,30.0146484375,0)" xlink:href="#y"/><use transform="matrix(0.0087890625,0,0,0.0087890625,39.4189453125,0)" xlink:href="#z"/><use transform="matrix(0.0087890625,0,0,0.0087890625,43.330078125,0)" xlink:href="#A"/><use transform="matrix(0.0087890625,0,0,0.0087890625,53.2880859375,0)" xlink:href="#B"/><use transform="matrix(0.0087890625,0,0,0.0087890625,63.0703125,0)" xlink:href="#w"/></g><path fill="#333" d="M671-1359c49 0 104 46 104 96 0 119-18 223-55 311-21 49-52 73-95 73-55 0-110-45-110-101 0-55 17-147 50-276 17-69 53-103 106-103zm-263 98c-1 51 7 235 7 286 0 52-51 98-103 98-76 0-114-129-114-386 0-58 48-102 106-102s106 45 104 104" id="C"/><path fill="#333" d="M922-654c-9 182 20 369 29 555 5 90-140 139-183 58-2-3-13-31-31-85-54-160-191-263-414-306-19 75-30 243-58 360-12 50-51 72-98 72-55 0-99-53-99-108 1-366 195-896 360-1117 69-92 141-140 222-140 182 0 273 207 273 621 0 19 1 49-1 90zM724-476v-400c-20-103-13-145-35-225-11-40-25-60-40-60-32 0-83 65-154 195-56 103-99 215-130 336 137 27 256 79 359 154" id="D"/><path fill="#333" d="M534 0c-54 1-104-40-104-96 0-45 18-79 58-93 38-13 78-19 114-33 139-52 207-229 207-522-71 158-178 237-321 237-171 0-289-87-355-261-43-114-65-273-65-478 0-79 34-119 101-119 58 0 96 44 106 134 10 91 12 183 22 275 13 113 52 188 113 226 57 35 92 27 153-4 115-60 203-251 231-413 5-26 9-65 25-113s51-71 94-71c48 0 84 32 102 97 48 177 15 638-17 760-49 186-136 325-271 414C667-20 603 0 534 0" id="E"/><path fill="#333" d="M430-1365c53 0 103 46 101 99 6 2-144 293-135 283-45 115-67 263-67 445 0 89 34 260 81 437C412-48 357 0 305 0 176 0 126-356 126-531c0-295 57-536 171-723 45-74 89-111 133-111" id="F"/><path fill="#333" d="M218-1263c0-53 53-102 105-102 66 0 117 71 145 216 71 369 11 792-142 1038C281-38 239 0 196 0 144 0 87-46 92-99c2-26 67-122 87-155 105-188 159-578 72-860-24-76-33-126-33-149" id="G"/><g id="b"><use transform="matrix(0.0087890625,0,0,0.0087890625,0,0)" xlink:href="#C"/><use transform="matrix(0.0087890625,0,0,0.0087890625,8.47265625,0)" xlink:href="#w"/><use transform="matrix(0.0087890625,0,0,0.0087890625,18.4482421875,0)" xlink:href="#B"/><use transform="matrix(0.0087890625,0,0,0.0087890625,28.23046875,0)" xlink:href="#D"/><use transform="matrix(0.0087890625,0,0,0.0087890625,37.6171875,0)" xlink:href="#A"/><use transform="matrix(0.0087890625,0,0,0.0087890625,47.5751953125,0)" xlink:href="#E"/><use transform="matrix(0.0087890625,0,0,0.0087890625,57.638671875,0)" xlink:href="#F"/><use transform="matrix(0.0087890625,0,0,0.0087890625,63.158203125,0)" xlink:href="#G"/><use transform="matrix(0.0087890625,0,0,0.0087890625,68.7041015625,0)" xlink:href="#C"/></g><path fill="#333" d="M379-1365c368 0 677 218 677 573 0 172-83 346-249 522C639-90 470 0 299 0 185 0 128-80 128-239c0-257 31-558 68-915-53-11-80-43-80-95 0-56 32-93 97-108 26-6 82-8 166-8zm20 204c-15 77-48 489-71 917 0 13 0 27 1 41 116-22 232-92 347-210 119-123 179-241 179-355-1-195-66-277-208-343-75-35-158-50-248-50" id="H"/><path fill="#333" d="M196-1063c0-251 371-378 608-255 71 37 119 87 150 151 35 73-14 152-87 150-26 0-63-25-111-73s-102-72-162-72c-72 0-200 37-200 99 0 43 47 111 142 203 145 142 234 232 266 271 95 116 142 225 142 328C944-95 791 0 613 0 494 0 170-60 118-111c-29-29-48-55-48-87-1-69 67-120 140-92h-2c162 59 305 89 429 89 69 0 104-25 104-75 0-69-47-151-142-245-86-86-177-167-261-254-98-100-142-199-142-288" id="I"/><path fill="#333" d="M773-362c52-3 103 50 103 101 0 27-17 56-48 89C762-102 548 0 418 0 210 0 81-204 84-422c3-221 73-486 152-640 103-201 220-303 358-303 167 0 251 128 251 385 0 123-35 185-106 185-48 0-101-46-99-94 2-77 27-278-39-278-46 0-94 47-150 138-89 144-168 415-168 602 0 146 56 219 169 219 46 0 106-26 180-77s122-77 141-77" id="J"/><g id="c"><use transform="matrix(0.0087890625,0,0,0.0087890625,0,0)" xlink:href="#H"/><use transform="matrix(0.0087890625,0,0,0.0087890625,9.84375,0)" xlink:href="#z"/><use transform="matrix(0.0087890625,0,0,0.0087890625,13.7548828125,0)" xlink:href="#I"/><use transform="matrix(0.0087890625,0,0,0.0087890625,23.1591796875,0)" xlink:href="#J"/><use transform="matrix(0.0087890625,0,0,0.0087890625,31.6669921875,0)" xlink:href="#x"/><use transform="matrix(0.0087890625,0,0,0.0087890625,42.3896484375,0)" xlink:href="#w"/><use transform="matrix(0.0087890625,0,0,0.0087890625,52.365234375,0)" xlink:href="#A"/></g><path fill="#333" d="M829-1263c0-55 42-106 96-102 141 10 133 224 150 372 25 219 36 341 36 365 0 117-18 227-55 328C983-97 875 5 732 5 532 5 402-187 343-570c-16 123-24 243-24 360C319-70 282 0 207 0c-53 0-99-44-99-97 0-315 85-1025 186-1197 27-46 56-71 93-71 53 0 88 33 105 99 5 21 8 92 8 213 0 153 26 313 55 481 43 253 101 379 172 379 116 0 183-303 183-438 0-120-81-513-81-632" id="K"/><path fill="#333" d="M46-1227c0-128 188-119 328-120 79-1 391-35 488-35 99 0 148 35 148 105 0 65-48 98-145 98-76 0-153 3-232 8 1 179-14 796-13 976C622-79 604-4 510 0c-53 2-99-44-99-97v-270c21-312 24-505 22-785-143 13-240 20-291 20-64 0-96-32-96-95" id="L"/><g id="d"><use transform="matrix(0.0087890625,0,0,0.0087890625,0,0)" xlink:href="#B"/><use transform="matrix(0.0087890625,0,0,0.0087890625,9.7822265625,0)" xlink:href="#y"/><use transform="matrix(0.0087890625,0,0,0.0087890625,19.1865234375,0)" xlink:href="#B"/><use transform="matrix(0.0087890625,0,0,0.0087890625,28.96875,0)" xlink:href="#K"/><use transform="matrix(0.0087890625,0,0,0.0087890625,39.7265625,0)" xlink:href="#L"/></g><path fill="#333" d="M188 0C127 1 82-61 96-128c102-498 136-682 239-1056 16-58 29-97 39-118 39-81 152-87 186 3 8 21 18 60 27 118 29 181 79 412 149 693 44-195 133-594 228-824 15-37 48-53 86-53 50 0 89 31 100 97 19 117 18 225 53 381 45 201 158 605 162 785 1 54-41 102-95 102-46 0-83-20-96-65-38-130-44-258-87-432-40-161-61-264-70-309-35 138-86 345-147 622-13 58-23 96-30 117-29 83-132 87-176 19-11-18-25-49-39-97-63-219-122-453-173-703-35 145-85 365-140 660-11 60-19 101-29 123-20 43-51 65-95 65" id="M"/><path fill="#333" d="M621-594c163 0 326 124 326 282S736 5 573 0C387-6 235-158 176-307c-32-81-50-172-50-277 0-291 84-515 251-672 123-114 255-148 401-60 53 32 90 76 121 123 44 67-17 153-85 152-24 0-53-21-88-61s-68-60-100-60c-180 0-298 367-298 568 0 189 80 393 249 393 76 0 150-57 167-118-25-60-81-80-164-74-50 4-95-50-95-100 0-67 45-101 136-101" id="N"/><path fill="#333" d="M768-362c52-3 102 50 102 101 0 27-17 56-47 89C758-102 542 0 413 0 205 0 76-203 79-422c3-220 72-486 151-640 103-201 221-303 359-303 167 0 251 128 251 385 0 123-35 185-106 185-48 0-101-46-99-94 2-77 27-279-39-278-99 4-207 230-243 339-48 149-75 282-75 401 0 146 56 219 169 219 45 0 105-26 180-77s122-77 141-77" id="O"/><g id="e"><use transform="matrix(0.0087890625,0,0,0.0087890625,0,0)" xlink:href="#C"/><use transform="matrix(0.0087890625,0,0,0.0087890625,8.47265625,0)" xlink:href="#M"/><use transform="matrix(0.0087890625,0,0,0.0087890625,21.357421875,0)" xlink:href="#B"/><use transform="matrix(0.0087890625,0,0,0.0087890625,31.1396484375,0)" xlink:href="#I"/><use transform="matrix(0.0087890625,0,0,0.0087890625,40.5439453125,0)" xlink:href="#I"/><use transform="matrix(0.0087890625,0,0,0.0087890625,49.9482421875,0)" xlink:href="#D"/><use transform="matrix(0.0087890625,0,0,0.0087890625,59.1240234375,0)" xlink:href="#N"/><use transform="matrix(0.0087890625,0,0,0.0087890625,68.3349609375,0)" xlink:href="#B"/><use transform="matrix(0.0087890625,0,0,0.0087890625,78.1171875,0)" xlink:href="#O"/><use transform="matrix(0.0087890625,0,0,0.0087890625,86.51953125,0)" xlink:href="#w"/><use transform="matrix(0.0087890625,0,0,0.0087890625,96.4951171875,0)" xlink:href="#B"/><use transform="matrix(0.0087890625,0,0,0.0087890625,106.27734375,0)" xlink:href="#D"/><use transform="matrix(0.0087890625,0,0,0.0087890625,115.6640625,0)" xlink:href="#L"/><use transform="matrix(0.0087890625,0,0,0.0087890625,124.962890625,0)" xlink:href="#B"/><use transform="matrix(0.0087890625,0,0,0.0087890625,134.7451171875,0)" xlink:href="#C"/></g><path fill="#225798" d="M186 0C125 1 80-61 94-128c102-498 136-682 239-1056 16-58 29-97 39-118 39-81 152-87 186 3 8 21 18 60 27 118 29 181 80 412 149 693 44-195 134-593 229-824 15-37 48-53 85-53 50 0 90 31 101 97 20 117 17 225 52 381 45 201 159 605 163 785 2 54-42 102-96 102-45 0-83-20-96-65-37-130-44-258-87-432-40-161-61-264-70-309-35 138-85 345-146 622-13 58-24 96-31 117-30 83-132 87-176 19-11-18-25-49-39-97-63-219-121-453-172-703-35 145-84 365-140 660-11 60-19 102-29 123-19 43-51 65-96 65" id="P"/><path fill="#225798" d="M369 0C201 0 119-119 119-294c0-119 26-272 77-457 80-290 99-377 125-524 7-13 27-26 60-41 71-33 211-49 419-49 129 0 193 36 193 107 0 50-48 105-99 101-142-10-258-9-397 20-11 59-34 158-69 297 146-57 246-85 301-85 53 0 100 43 100 96 0 43-23 80-73 99-127 49-178 54-389 129-29 119-44 224-44 314 0 58 10 87 30 87 66 0 151-30 256-90s173-91 205-91c50 0 101 49 101 99 0 30-19 57-51 87C794-129 500 0 369 0" id="Q"/><path fill="#225798" d="M196-1063c0-251 371-378 608-255 71 37 119 87 150 151 35 73-14 152-87 150-26 0-63-25-111-73s-102-72-162-72c-72 0-200 37-200 99 0 43 47 111 142 203 145 142 234 232 266 271 95 116 142 225 142 328C944-95 791 0 613 0 494 0 170-60 118-111c-29-29-48-55-48-87-1-69 67-120 140-92h-2c162 59 305 89 429 89 69 0 104-25 104-75 0-69-47-151-142-245-86-86-177-167-261-254-98-100-142-199-142-288" id="R"/><path fill="#225798" d="M922-654c-9 182 20 369 29 555 5 90-140 139-183 58-2-3-13-31-31-85-54-160-191-263-414-306-19 75-30 243-58 360-12 50-51 72-98 72-55 0-99-53-99-108 1-366 195-896 360-1117 69-92 141-140 222-140 182 0 273 207 273 621 0 19 1 49-1 90zM724-476v-400c-20-103-13-145-35-225-11-40-25-60-40-60-32 0-83 65-154 195-56 103-99 215-130 336 137 27 256 79 359 154" id="S"/><path fill="#225798" d="M621-594c163 0 326 124 326 282S736 5 573 0C387-6 235-158 176-307c-32-81-50-172-50-277 0-291 84-515 251-672 123-114 255-148 401-60 53 32 90 76 121 123 44 67-17 153-85 152-24 0-53-21-88-61s-68-60-100-60c-180 0-298 367-298 568 0 189 80 393 249 393 76 0 150-57 167-118-25-60-81-80-164-74-50 4-95-50-95-100 0-67 45-101 136-101" id="T"/><g id="f"><use transform="matrix(0.0087890625,0,0,0.0087890625,0,0)" xlink:href="#P"/><use transform="matrix(0.0087890625,0,0,0.0087890625,12.8408203125,0)" xlink:href="#Q"/><use transform="matrix(0.0087890625,0,0,0.0087890625,22.623046875,0)" xlink:href="#R"/><use transform="matrix(0.0087890625,0,0,0.0087890625,32.02734375,0)" xlink:href="#R"/><use transform="matrix(0.0087890625,0,0,0.0087890625,41.431640625,0)" xlink:href="#S"/><use transform="matrix(0.0087890625,0,0,0.0087890625,50.607421875,0)" xlink:href="#T"/><use transform="matrix(0.0087890625,0,0,0.0087890625,59.818359375,0)" xlink:href="#Q"/></g><path fill="#225798" d="M270-1365c53 0 101 46 100 99-5 357-80 777-80 1073C290-64 254 0 183 0 132 0 82-50 82-101c0-298 47-662 55-976 2-76 19-138 34-189 19-66 52-99 99-99" id="U"/><g id="g"><use transform="matrix(0.0087890625,0,0,0.0087890625,0,0)" xlink:href="#U"/><use transform="matrix(0.0087890625,0,0,0.0087890625,3.9111328125,0)" xlink:href="#R"/></g><path fill="#225798" d="M829-1263c0-55 42-106 96-102 141 10 133 224 150 372 25 219 36 341 36 365 0 117-18 227-55 328C983-97 875 5 732 5 532 5 402-187 343-570c-16 123-24 243-24 360C319-70 282 0 207 0c-53 0-99-44-99-97 0-315 85-1025 186-1197 27-46 56-71 93-71 53 0 88 33 105 99 5 21 8 92 8 213 0 153 26 313 55 481 43 253 101 379 172 379 116 0 183-303 183-438 0-120-81-513-81-632" id="V"/><g id="h"><use transform="matrix(0.0087890625,0,0,0.0087890625,0,0)" xlink:href="#S"/><use transform="matrix(0.0087890625,0,0,0.0087890625,9.38671875,0)" xlink:href="#V"/></g><path fill="#225798" d="M773-362c52-3 103 50 103 101 0 27-17 56-48 89C762-102 548 0 418 0 210 0 81-204 84-422c3-221 73-486 152-640 103-201 220-303 358-303 167 0 251 128 251 385 0 123-35 185-106 185-48 0-101-46-99-94 2-77 27-278-39-278-46 0-94 47-150 138-89 144-168 415-168 602 0 146 56 219 169 219 46 0 106-26 180-77s122-77 141-77" id="W"/><path fill="#225798" d="M609-1364c323 0 519 229 519 557 0 183-51 357-152 522C860-95 716 0 544 0 271 0 97-283 97-570c0-191 38-362 113-512 95-188 228-282 399-282zm319 550c0-231-116-347-349-347-81 0-151 81-210 243-48 132-72 248-72 348 0 161 47 272 142 333 35 23 69 34 100 34 113 0 208-76 287-229 68-131 102-258 102-382" id="X"/><path fill="#225798" d="M188 0C127 1 82-61 96-128c102-498 136-682 239-1056 16-58 29-97 39-118 39-81 152-87 186 3 8 21 18 60 27 118 29 181 79 412 149 693 44-195 133-594 228-824 15-37 48-53 86-53 50 0 89 31 100 97 19 117 18 225 53 381 45 201 158 605 162 785 1 54-41 102-95 102-46 0-83-20-96-65-38-130-44-258-87-432-40-161-61-264-70-309-35 138-86 345-147 622-13 58-23 96-30 117-29 83-132 87-176 19-11-18-25-49-39-97-63-219-122-453-173-703-35 145-85 365-140 660-11 60-19 101-29 123-20 43-51 65-95 65" id="Y"/><path fill="#225798" d="M387-1365c369 0 678 217 678 573 0 172-83 346-249 522C647-90 478 0 307 0 194 0 137-80 137-239c0-257 30-558 68-915-53-11-80-43-80-95 0-56 32-93 97-108 26-6 81-8 165-8zm21 204c-15 76-47 491-72 917 0 13 1 27 2 41 116-22 231-92 346-210 120-123 180-241 180-355-1-196-67-277-209-343-74-35-157-50-247-50" id="Z"/><g id="i"><use transform="matrix(0.0087890625,0,0,0.0087890625,0,0)" xlink:href="#W"/><use transform="matrix(0.0087890625,0,0,0.0087890625,8.5078125,0)" xlink:href="#X"/><use transform="matrix(0.0087890625,0,0,0.0087890625,19.23046875,0)" xlink:href="#Y"/><use transform="matrix(0.0087890625,0,0,0.0087890625,32.115234375,0)" xlink:href="#Y"/><use transform="matrix(0.0087890625,0,0,0.0087890625,45,0)" xlink:href="#S"/><use transform="matrix(0.0087890625,0,0,0.0087890625,54.38671875,0)" xlink:href="#V"/><use transform="matrix(0.0087890625,0,0,0.0087890625,65.14453125,0)" xlink:href="#Z"/></g><path fill="#225798" d="M570-1365c252 0 515 79 514 295 0 106-48 190-145 251-19 13-114 54-284 123-110 45-175 99-194 160-7 21-10 44-10 70 0 50-54 91-101 91-67 0-101-46-101-137 0-116 56-219 178-288 78-45 165-74 247-111 128-58 191-106 191-139 0-53-32-91-97-105-156-33-298-3-480 34-42 8-78-57-78-103 0-94 120-141 360-141zM328-258c62 0 109 75 109 135C437-57 367 0 302 0c-56 0-111-58-111-114 0-65 71-144 137-144" id="aa"/><use transform="matrix(0.0087890625,0,0,0.0087890625,0,0)" xlink:href="#aa" id="j"/><path fill="#333" d="M828-1263c0-55 41-106 95-102 140 10 133 224 150 372 25 219 36 341 36 365 0 117-18 227-54 328C982-97 873 5 730 5 530 5 400-187 341-570c-16 123-24 243-24 360C317-70 280 0 205 0c-53 0-99-44-99-97 0-314 85-1024 186-1197 27-46 56-71 94-71 52 0 87 33 104 99 5 21 8 92 8 213 0 153 26 313 55 481 43 253 101 379 172 379 116 0 183-303 183-438 0-120-80-513-80-632" id="ab"/><g id="k"><use transform="matrix(0.0087890625,0,0,0.0087890625,0,0)" xlink:href="#ab"/><use transform="matrix(0.0087890625,0,0,0.0087890625,10.72265625,0)" xlink:href="#x"/></g><path fill="#333" d="M534 0c-54 1-104-40-104-96 0-45 18-79 58-93 38-13 78-19 114-33 139-52 207-229 207-522-71 158-178 237-321 237-171 0-289-87-355-261-43-114-65-273-65-478 0-79 34-119 101-119 58 0 96 44 106 134 10 91 12 183 22 275 13 113 52 188 113 226 57 35 92 27 153-4 115-60 203-251 231-413 5-26 9-65 25-113s51-71 94-71c48 0 84 32 102 97 48 177 15 638-17 760-49 186-136 325-271 414C667-20 603 0 534 0" id="ac"/><g id="l"><use transform="matrix(0.0087890625,0,0,0.0087890625,0,0)" xlink:href="#ac"/><use transform="matrix(0.0087890625,0,0,0.0087890625,10.0810546875,0)" xlink:href="#B"/><use transform="matrix(0.0087890625,0,0,0.0087890625,19.86328125,0)" xlink:href="#I"/></g><path fill="#fff" d="M362 0C195 0 113-120 113-294c0-119 25-272 76-457 80-290 99-377 125-524 7-13 27-26 60-41 71-33 211-49 420-49 128 0 192 36 192 107 0 50-48 105-99 101-142-10-258-9-397 20-11 59-33 158-68 297 145-57 245-85 300-85 53 0 101 43 101 96 0 43-23 79-74 99-127 49-178 54-389 129-29 119-44 224-44 314 0 58 10 87 30 87 66 0 151-30 256-90s173-91 205-91c51 0 101 49 101 99 0 30-19 57-51 87C788-129 492 0 362 0" id="ad"/><path fill="#fff" d="M188 0C127 1 82-61 96-128c102-498 136-682 239-1056 16-58 29-97 39-118 39-81 152-87 186 3 8 21 18 60 27 118 29 181 79 412 149 693 44-195 133-594 228-824 15-37 48-53 86-53 50 0 89 31 100 97 19 117 18 225 53 381 45 201 158 605 162 785 1 54-41 102-95 102-46 0-83-20-96-65-38-130-44-258-87-432-40-161-61-264-70-309-35 138-86 345-147 622-13 58-23 96-30 117-29 83-132 87-176 19-11-18-25-49-39-97-63-219-122-453-173-703-35 145-85 365-140 660-11 60-19 101-29 123-20 43-51 65-95 65" id="ae"/><path fill="#fff" d="M270-1365c53 0 101 46 100 99-5 357-80 777-80 1073C290-64 254 0 183 0 132 0 82-50 82-101c0-298 47-662 55-976 2-76 19-138 34-189 19-66 52-99 99-99" id="af"/><path fill="#fff" d="M46-1227c0-128 188-119 328-120 79-1 391-35 488-35 99 0 148 35 148 105 0 65-48 98-145 98-76 0-153 3-232 8 1 179-14 796-13 976C622-79 604-4 510 0c-53 2-99-44-99-97v-270c21-312 24-505 22-785-143 13-240 20-291 20-64 0-96-32-96-95" id="ag"/><g id="m"><use transform="matrix(0.0087890625,0,0,0.0087890625,0,0)" xlink:href="#ad"/><use transform="matrix(0.0087890625,0,0,0.0087890625,9.6416015625,0)" xlink:href="#ae"/><use transform="matrix(0.0087890625,0,0,0.0087890625,22.5263671875,0)" xlink:href="#af"/><use transform="matrix(0.0087890625,0,0,0.0087890625,26.4375,0)" xlink:href="#ag"/></g><path fill="#fff" d="M920-744c0 218 15 427 27 645 5 89-139 139-182 58-3-3-13-32-31-85-53-161-192-263-415-306-18 75-30 243-58 360-12 50-50 72-97 72-56 0-99-53-99-108 1-367 194-896 360-1117 69-92 141-140 222-140 182 0 273 207 273 621zM720-476v-400c-19-103-12-145-34-225-11-40-25-60-41-60-32 0-83 65-153 195-56 103-99 215-130 336 137 27 256 79 358 154" id="ah"/><path fill="#fff" d="M492-1365c272 0 549 114 549 360 0 140-81 265-244 374-130 87-276 146-439 180-7 56-15 301-32 372-12 53-46 79-94 79-53 0-99-48-99-101 0-201 55-864 50-1044-38-23-57-56-57-99 0-39 24-69 72-90s147-31 294-31zm348 355c0-132-280-161-454-151-1 136-2 303-2 501 100-31 192-72 276-122 120-70 180-146 180-228" id="ai"/><path fill="#fff" d="M268-847c61 0 138 58 138 120s-57 130-121 130c-60 0-125-53-125-113 0-72 40-137 108-137zm-96 728c0-58 89-135 145-135 72 0 108 42 108 126C399-70 383-1 305 0c-62 1-133-56-133-119" id="aj"/><path fill="#fff" d="M369 0C201 0 119-119 119-294c0-119 26-272 77-457 80-290 99-377 125-524 7-13 27-26 60-41 71-33 211-49 419-49 129 0 193 36 193 107 0 50-48 105-99 101-142-10-258-9-397 20-11 59-34 158-69 297 146-57 246-85 301-85 53 0 100 43 100 96 0 43-23 80-73 99-127 49-178 54-389 129-29 119-44 224-44 314 0 58 10 87 30 87 66 0 151-30 256-90s173-91 205-91c50 0 101 49 101 99 0 30-19 57-51 87C794-129 500 0 369 0" id="ak"/><path fill="#fff" d="M196-1063c0-251 371-378 608-255 71 37 119 87 150 151 35 73-14 152-87 150-26 0-63-25-111-73s-102-72-162-72c-72 0-200 37-200 99 0 43 47 111 142 203 145 142 234 232 266 271 95 116 142 225 142 328C944-95 791 0 613 0 494 0 170-60 118-111c-29-29-48-55-48-87-1-69 67-120 140-92h-2c162 59 305 89 429 89 69 0 104-25 104-75 0-69-47-151-142-245-86-86-177-167-261-254-98-100-142-199-142-288" id="al"/><path fill="#fff" d="M922-654c-9 182 20 369 29 555 5 90-140 139-183 58-2-3-13-31-31-85-54-160-191-263-414-306-19 75-30 243-58 360-12 50-51 72-98 72-55 0-99-53-99-108 1-366 195-896 360-1117 69-92 141-140 222-140 182 0 273 207 273 621 0 19 1 49-1 90zM724-476v-400c-20-103-13-145-35-225-11-40-25-60-40-60-32 0-83 65-154 195-56 103-99 215-130 336 137 27 256 79 359 154" id="am"/><path fill="#fff" d="M621-594c163 0 326 124 326 282S736 5 573 0C387-6 235-158 176-307c-32-81-50-172-50-277 0-291 84-515 251-672 123-114 255-148 401-60 53 32 90 76 121 123 44 67-17 153-85 152-24 0-53-21-88-61s-68-60-100-60c-180 0-298 367-298 568 0 189 80 393 249 393 76 0 150-57 167-118-25-60-81-80-164-74-50 4-95-50-95-100 0-67 45-101 136-101" id="an"/><path fill="#fff" d="M432-1365c342 0 623 232 623 568 0 219-132 374-395 466 145 90 217 167 217 230 0 52-52 98-104 96-17 0-39-10-66-29-90-65-203-166-304-203v78C403-53 368 0 299 0c-53 0-99-44-99-97v-374c17-145 25-361 25-650-2 5-10 7-24 7-53 2-99-46-99-99 0-112 194-152 330-152zm257 786c221-128 209-317 21-469-89-71-178-111-268-119-1 97-2 329-2 698 90-27 172-66 249-110" id="ao"/><path fill="#fff" d="M773-362c52-3 103 50 103 101 0 27-17 56-48 89C762-102 548 0 418 0 210 0 81-204 84-422c3-221 73-486 152-640 103-201 220-303 358-303 167 0 251 128 251 385 0 123-35 185-106 185-48 0-101-46-99-94 2-77 27-278-39-278-46 0-94 47-150 138-89 144-168 415-168 602 0 146 56 219 169 219 46 0 106-26 180-77s122-77 141-77" id="ap"/><path fill="#fff" d="M925-1365c52 0 103 46 101 97 0 23-38 113-113 270-125 261-227 519-304 774-21 71-38 117-49 139-29 57-63 85-104 85-109-1-156-321-181-456-30-165-184-659-203-805-7-52 44-104 97-104 40 0 72 25 99 73 46 84 66 250 92 370 23 106 68 262 121 471 71-167 173-418 306-754 20-51 35-86 46-104 25-37 55-56 92-56" id="aq"/><path fill="#fff" d="M387-1365c369 0 678 217 678 573 0 172-83 346-249 522C647-90 478 0 307 0 194 0 137-80 137-239c0-257 30-558 68-915-53-11-80-43-80-95 0-56 32-93 97-108 26-6 81-8 165-8zm21 204c-15 76-47 491-72 917 0 13 1 27 2 41 116-22 231-92 346-210 120-123 180-241 180-355-1-196-67-277-209-343-74-35-157-50-247-50" id="ar"/><g id="n"><use transform="matrix(0.0087890625,0,0,0.0087890625,0,0)" xlink:href="#ah"/><use transform="matrix(0.0087890625,0,0,0.0087890625,9.10546875,0)" xlink:href="#ai"/><use transform="matrix(0.0087890625,0,0,0.0087890625,18.4482421875,0)" xlink:href="#ai"/><use transform="matrix(0.0087890625,0,0,0.0087890625,27.791015625,0)" xlink:href="#aj"/><use transform="matrix(0.0087890625,0,0,0.0087890625,32.8447265625,0)" xlink:href="#ae"/><use transform="matrix(0.0087890625,0,0,0.0087890625,45.7294921875,0)" xlink:href="#ak"/><use transform="matrix(0.0087890625,0,0,0.0087890625,55.51171875,0)" xlink:href="#al"/><use transform="matrix(0.0087890625,0,0,0.0087890625,64.916015625,0)" xlink:href="#al"/><use transform="matrix(0.0087890625,0,0,0.0087890625,74.3203125,0)" xlink:href="#am"/><use transform="matrix(0.0087890625,0,0,0.0087890625,83.49609375,0)" xlink:href="#an"/><use transform="matrix(0.0087890625,0,0,0.0087890625,92.70703125,0)" xlink:href="#ak"/><use transform="matrix(0.0087890625,0,0,0.0087890625,102.4892578125,0)" xlink:href="#aj"/><use transform="matrix(0.0087890625,0,0,0.0087890625,107.54296875,0)" xlink:href="#ao"/><use transform="matrix(0.0087890625,0,0,0.0087890625,117.5185546875,0)" xlink:href="#ak"/><use transform="matrix(0.0087890625,0,0,0.0087890625,127.30078125,0)" xlink:href="#ap"/><use transform="matrix(0.0087890625,0,0,0.0087890625,135.80859375,0)" xlink:href="#ak"/><use transform="matrix(0.0087890625,0,0,0.0087890625,145.5908203125,0)" xlink:href="#af"/><use transform="matrix(0.0087890625,0,0,0.0087890625,149.501953125,0)" xlink:href="#aq"/><use transform="matrix(0.0087890625,0,0,0.0087890625,158.90625,0)" xlink:href="#ak"/><use transform="matrix(0.0087890625,0,0,0.0087890625,168.6884765625,0)" xlink:href="#ar"/></g><path fill="#fff" d="M609-1364c323 0 519 229 519 557 0 183-51 357-152 522C860-95 716 0 544 0 271 0 97-283 97-570c0-191 38-362 113-512 95-188 228-282 399-282zm319 550c0-231-116-347-349-347-81 0-151 81-210 243-48 132-72 248-72 348 0 161 47 272 142 333 35 23 69 34 100 34 113 0 208-76 287-229 68-131 102-258 102-382" id="as"/><path fill="#fff" d="M829-1263c0-55 42-106 96-102 141 10 133 224 150 372 25 219 36 341 36 365 0 117-18 227-55 328C983-97 875 5 732 5 532 5 402-187 343-570c-16 123-24 243-24 360C319-70 282 0 207 0c-53 0-99-44-99-97 0-315 85-1025 186-1197 27-46 56-71 93-71 53 0 88 33 105 99 5 21 8 92 8 213 0 153 26 313 55 481 43 253 101 379 172 379 116 0 183-303 183-438 0-120-81-513-81-632" id="at"/><g id="o"><use transform="matrix(0.0087890625,0,0,0.0087890625,0,0)" xlink:href="#ah"/><use transform="matrix(0.0087890625,0,0,0.0087890625,9.10546875,0)" xlink:href="#ai"/><use transform="matrix(0.0087890625,0,0,0.0087890625,18.4482421875,0)" xlink:href="#ai"/><use transform="matrix(0.0087890625,0,0,0.0087890625,27.791015625,0)" xlink:href="#aj"/><use transform="matrix(0.0087890625,0,0,0.0087890625,32.8447265625,0)" xlink:href="#ap"/><use transform="matrix(0.0087890625,0,0,0.0087890625,41.3525390625,0)" xlink:href="#as"/><use transform="matrix(0.0087890625,0,0,0.0087890625,52.0751953125,0)" xlink:href="#ae"/><use transform="matrix(0.0087890625,0,0,0.0087890625,64.9599609375,0)" xlink:href="#ae"/><use transform="matrix(0.0087890625,0,0,0.0087890625,77.8447265625,0)" xlink:href="#am"/><use transform="matrix(0.0087890625,0,0,0.0087890625,87.2314453125,0)" xlink:href="#at"/><use transform="matrix(0.0087890625,0,0,0.0087890625,97.9892578125,0)" xlink:href="#ar"/><use transform="matrix(0.0087890625,0,0,0.0087890625,107.947265625,0)" xlink:href="#aj"/><use transform="matrix(0.0087890625,0,0,0.0087890625,113.0009765625,0)" xlink:href="#ao"/><use transform="matrix(0.0087890625,0,0,0.0087890625,122.9765625,0)" xlink:href="#ak"/><use transform="matrix(0.0087890625,0,0,0.0087890625,132.7587890625,0)" xlink:href="#ap"/><use transform="matrix(0.0087890625,0,0,0.0087890625,141.2666015625,0)" xlink:href="#ak"/><use transform="matrix(0.0087890625,0,0,0.0087890625,151.048828125,0)" xlink:href="#af"/><use transform="matrix(0.0087890625,0,0,0.0087890625,154.9599609375,0)" xlink:href="#aq"/><use transform="matrix(0.0087890625,0,0,0.0087890625,164.3642578125,0)" xlink:href="#ak"/><use transform="matrix(0.0087890625,0,0,0.0087890625,174.146484375,0)" xlink:href="#ar"/></g><path fill="#225798" d="M203-1149c-53 2-102-44-102-97 0-81 83-121 249-121 26 1 80 3 114 2 148 0 222 37 222 111 0 53-48 102-101 100-20 0-52-3-97-8-28 489-22 541-22 947 76-15 142 28 142 94 0 49-23 87-72 99-75 18-199 39-326 61-50 9-91-53-91-102 0-61 53-101 159-120-24-480-18-487 7-976-34 7-61 10-82 10" id="au"/><path fill="#225798" d="M379-1365c368 0 677 218 677 573 0 172-83 346-249 522C639-90 470 0 299 0 185 0 128-80 128-239c0-257 31-558 68-915-53-11-80-43-80-95 0-56 32-93 97-108 26-6 82-8 166-8zm20 204c-15 77-48 489-71 917 0 13 0 27 1 41 116-22 232-92 347-210 119-123 179-241 179-355-1-195-66-277-208-343-75-35-158-50-248-50" id="av"/><path fill="#225798" d="M758-451c66-46 150 20 150 87 0 27-17 54-48 86C767-182 488 0 328 0 185 0 113-109 113-326c0-170 46-508 46-695 0-141-8-341 119-344 53-2 103 46 101 99-3-2-26 472-39 636-16 198-28 312-28 343 0 57 11 86 33 86 60 0 168-62 324-185 19-16 49-38 89-65" id="aw"/><path fill="#225798" d="M362 0C195 0 113-120 113-294c0-119 25-272 76-457 80-290 99-377 125-524 7-13 27-26 60-41 71-33 211-49 420-49 128 0 192 36 192 107 0 50-48 105-99 101-142-10-258-9-397 20-11 59-33 158-68 297 145-57 245-85 300-85 53 0 101 43 101 96 0 43-23 79-74 99-127 49-178 54-389 129-29 119-44 224-44 314 0 58 10 87 30 87 66 0 151-30 256-90s173-91 205-91c51 0 101 49 101 99 0 30-19 57-51 87C788-129 492 0 362 0" id="ax"/><path fill="#225798" d="M1318-1365c50 0 103 50 100 100-10 151-187 568-251 746-42 119-107 332-145 435-42 112-161 111-205 2-9-23-20-69-34-138-17-86-43-213-76-384-30 121-72 279-128 471-25 85-42 143-123 143-41 0-72-22-91-66-8-19-18-59-29-120-38-220-218-897-246-1087-8-52 45-102 98-102 44 0 77 24 99 73 7 15 11 53 22 113 33 173 101 434 160 701 72-277 121-491 147-642 10-57 20-94 27-114 31-93 161-82 185 7 6 22 10 66 10 133 0 150 44 362 101 635l239-724c8-25 19-62 42-109 25-50 60-73 98-73" id="ay"/><path fill="#225798" d="M920-744c0 218 15 427 27 645 5 89-139 139-182 58-3-3-13-32-31-85-53-161-192-263-415-306-18 75-30 243-58 360-12 50-50 72-97 72-56 0-99-53-99-108 1-367 194-896 360-1117 69-92 141-140 222-140 182 0 273 207 273 621zM720-476v-400c-19-103-12-145-34-225-11-40-25-60-41-60-32 0-83 65-153 195-56 103-99 215-130 336 137 27 256 79 358 154" id="az"/><path fill="#225798" d="M430-1365c342 0 623 231 623 568 0 219-131 374-394 466 145 90 217 167 217 230 0 52-53 98-105 96-17 0-39-10-66-29-90-66-201-166-304-203v78C401-53 366 0 297 0c-53 0-99-44-99-97v-374c17-145 26-361 26-650-3 5-11 7-24 7-53 2-99-46-99-99 0-112 193-152 329-152zm258 786c221-128 209-317 20-469-89-71-178-111-268-119-1 97-1 329-1 698 89-27 172-65 249-110" id="aA"/><g id="p"><use transform="matrix(0.0087890625,0,0,0.0087890625,0,0)" xlink:href="#P"/><use transform="matrix(0.0087890625,0,0,0.0087890625,12.8408203125,0)" xlink:href="#au"/><use transform="matrix(0.0087890625,0,0,0.0087890625,19.5029296875,0)" xlink:href="#av"/><use transform="matrix(0.0087890625,0,0,0.0087890625,29.3466796875,0)" xlink:href="#av"/><use transform="matrix(0.0087890625,0,0,0.0087890625,39.1904296875,0)" xlink:href="#aw"/><use transform="matrix(0.0087890625,0,0,0.0087890625,47.232421875,0)" xlink:href="#ax"/><use transform="matrix(0.0087890625,0,0,0.0087890625,56.8740234375,0)" xlink:href="#ay"/><use transform="matrix(0.0087890625,0,0,0.0087890625,68.6953125,0)" xlink:href="#az"/><use transform="matrix(0.0087890625,0,0,0.0087890625,77.9765625,0)" xlink:href="#aA"/><use transform="matrix(0.0087890625,0,0,0.0087890625,87.92578125,0)" xlink:href="#ax"/></g><path fill="#225798" d="M925-1365c52 0 103 46 101 97 0 23-38 113-113 270-125 261-227 519-304 774-21 71-38 117-49 139-29 57-63 85-104 85-109-1-156-321-181-456-30-165-184-659-203-805-7-52 44-104 97-104 40 0 72 25 99 73 46 84 66 250 92 370 23 106 68 262 121 471 71-167 173-418 306-754 20-51 35-86 46-104 25-37 55-56 92-56" id="aB"/><path fill="#225798" d="M96-101c0-144 39-657 39-763 0-78 7-179 29-235 46-116 122-195 235-232 69-23 183-34 342-34 78 0 117 33 117 99 0 83-48 100-162 100-195-1-310 48-343 145-25 71-17 206-22 302 195-81 317-121 367-121 54 0 101 56 101 110 0 37-23 69-72 88-119 47-231 77-408 144-4 132 4 298-24 397C276-34 245 0 196 0 146 0 96-50 96-101" id="aC"/><path fill="#225798" d="M534 0c-54 1-104-40-104-96 0-45 18-79 58-93 38-13 78-19 114-33 139-52 207-229 207-522-71 158-178 237-321 237-171 0-289-87-355-261-43-114-65-273-65-478 0-79 34-119 101-119 58 0 96 44 106 134 10 91 12 183 22 275 13 113 52 188 113 226 57 35 92 27 153-4 115-60 203-251 231-413 5-26 9-65 25-113s51-71 94-71c48 0 84 32 102 97 48 177 15 638-17 760-49 186-136 325-271 414C667-20 603 0 534 0" id="aD"/><g id="q"><use transform="matrix(0.0087890625,0,0,0.0087890625,0,0)" xlink:href="#aB"/><use transform="matrix(0.0087890625,0,0,0.0087890625,9.38671875,0)" xlink:href="#ax"/><use transform="matrix(0.0087890625,0,0,0.0087890625,19.0283203125,0)" xlink:href="#aA"/><use transform="matrix(0.0087890625,0,0,0.0087890625,28.9775390625,0)" xlink:href="#au"/><use transform="matrix(0.0087890625,0,0,0.0087890625,35.6396484375,0)" xlink:href="#aC"/><use transform="matrix(0.0087890625,0,0,0.0087890625,43.98046875,0)" xlink:href="#aD"/></g><path fill="#fff" d="M768-362c52-3 102 50 102 101 0 27-17 56-47 89C758-102 542 0 413 0 205 0 76-203 79-422c3-220 72-486 151-640 103-201 221-303 359-303 167 0 251 128 251 385 0 123-35 185-106 185-48 0-101-46-99-94 2-77 27-279-39-278-99 4-207 230-243 339-48 149-75 282-75 401 0 146 56 219 169 219 45 0 105-26 180-77s122-77 141-77" id="aE"/><path fill="#fff" d="M828-1263c0-55 41-106 95-102 140 10 133 224 150 372 25 219 36 341 36 365 0 117-18 227-54 328C982-97 873 5 730 5 530 5 400-187 341-570c-16 123-24 243-24 360C317-70 280 0 205 0c-53 0-99-44-99-97 0-314 85-1024 186-1197 27-46 56-71 94-71 52 0 87 33 104 99 5 21 8 92 8 213 0 153 26 313 55 481 43 253 101 379 172 379 116 0 183-303 183-438 0-120-80-513-80-632" id="aF"/><path fill="#fff" d="M758-451c66-46 150 20 150 87 0 27-17 54-48 86C767-182 488 0 328 0 185 0 113-109 113-326c0-170 46-508 46-695 0-141-8-341 119-344 53-2 103 46 101 99-3-2-26 472-39 636-16 198-28 312-28 343 0 57 11 86 33 86 60 0 168-62 324-185 19-16 49-38 89-65" id="aG"/><path fill="#fff" d="M379-1365c368 0 677 218 677 573 0 172-83 346-249 522C639-90 470 0 299 0 185 0 128-80 128-239c0-257 31-558 68-915-53-11-80-43-80-95 0-56 32-93 97-108 26-6 82-8 166-8zm20 204c-15 77-48 489-71 917 0 13 0 27 1 41 116-22 232-92 347-210 119-123 179-241 179-355-1-195-66-277-208-343-75-35-158-50-248-50" id="aH"/><g id="r"><use transform="matrix(0.0087890625,0,0,0.0087890625,0,0)" xlink:href="#ah"/><use transform="matrix(0.0087890625,0,0,0.0087890625,9.10546875,0)" xlink:href="#ai"/><use transform="matrix(0.0087890625,0,0,0.0087890625,18.4482421875,0)" xlink:href="#ai"/><use transform="matrix(0.0087890625,0,0,0.0087890625,27.791015625,0)" xlink:href="#aj"/><use transform="matrix(0.0087890625,0,0,0.0087890625,32.8447265625,0)" xlink:href="#ap"/><use transform="matrix(0.0087890625,0,0,0.0087890625,41.3525390625,0)" xlink:href="#as"/><use transform="matrix(0.0087890625,0,0,0.0087890625,52.0751953125,0)" xlink:href="#ae"/><use transform="matrix(0.0087890625,0,0,0.0087890625,64.9599609375,0)" xlink:href="#ae"/><use transform="matrix(0.0087890625,0,0,0.0087890625,77.8447265625,0)" xlink:href="#am"/><use transform="matrix(0.0087890625,0,0,0.0087890625,87.2314453125,0)" xlink:href="#at"/><use transform="matrix(0.0087890625,0,0,0.0087890625,97.9892578125,0)" xlink:href="#ar"/><use transform="matrix(0.0087890625,0,0,0.0087890625,107.947265625,0)" xlink:href="#aj"/><use transform="matrix(0.0087890625,0,0,0.0087890625,113.0009765625,0)" xlink:href="#aE"/><use transform="matrix(0.0087890625,0,0,0.0087890625,121.4033203125,0)" xlink:href="#ah"/><use transform="matrix(0.0087890625,0,0,0.0087890625,130.6845703125,0)" xlink:href="#aF"/><use transform="matrix(0.0087890625,0,0,0.0087890625,141.4072265625,0)" xlink:href="#aE"/><use transform="matrix(0.0087890625,0,0,0.0087890625,149.8095703125,0)" xlink:href="#ad"/><use transform="matrix(0.0087890625,0,0,0.0087890625,159.451171875,0)" xlink:href="#aG"/><use transform="matrix(0.0087890625,0,0,0.0087890625,167.4931640625,0)" xlink:href="#aG"/><use transform="matrix(0.0087890625,0,0,0.0087890625,175.53515625,0)" xlink:href="#ad"/><use transform="matrix(0.0087890625,0,0,0.0087890625,185.1767578125,0)" xlink:href="#aH"/></g><path fill="#333" d="M806-1260c0-54 39-105 95-105 43 0 76 24 99 73 18 39 27 131 27 277 0 274-20 484-61 631C894-128 756 0 553 0 384 0 262-90 188-270c-51-126-77-289-77-488 0-289 18-467 53-534 26-49 59-73 99-73 53 0 105 52 99 104-14 128-48 300-48 513 0 128 14 239 41 332 41 144 108 216 201 216 105 0 180-98 226-293 29-124 44-265 44-422 0-66-20-279-20-345" id="aI"/><path fill="#333" d="M920-744c0 218 15 427 27 645 5 89-139 139-182 58-3-3-13-32-31-85-53-161-192-263-415-306-18 75-30 243-58 360-12 50-50 72-97 72-56 0-99-53-99-108 1-367 194-896 360-1117 69-92 141-140 222-140 182 0 273 207 273 621zM720-476v-400c-19-103-12-145-34-225-11-40-25-60-41-60-32 0-83 65-153 195-56 103-99 215-130 336 137 27 256 79 358 154" id="aJ"/><path fill="#333" d="M46-1227c0-128 188-119 328-120 79-1 391-35 488-35 99 0 148 35 148 105 0 65-48 98-145 98-76 0-153 3-232 8 1 179-14 796-13 976C622-79 604-4 510 0c-53 2-99-44-99-97v-270c21-312 24-505 22-785-143 13-240 20-291 20-64 0-96-32-96-95" id="aK"/><path fill="#333" d="M922-1365c50 0 100 48 100 99 0 155-55 850-94 1164C919-33 879 0 828 0c-53 0-101-49-101-102 0-145 29-345 44-490-110 9-252 35-425 78-5 58-8 145-8 260 0 35-10 86-22 153C304-33 267 0 217 0c-52 0-104-48-103-101 6-372 66-765 57-1090-3-107 18-171 107-174 56-2 99 41 99 97v544c167-44 305-66 413-66 7-75 10-182 10-321 8-35 12-88 23-155s48-99 99-99" id="aL"/><path fill="#333" d="M608-1364c322 0 518 229 518 557 0 183-50 357-151 522C858-95 714 0 543 0 269 0 96-283 96-570c0-191 37-362 112-512 94-188 228-282 400-282zm319 550c0-231-117-347-350-347-81 0-151 81-210 243-48 132-72 248-72 348 0 161 47 272 142 333 35 23 69 34 101 34 113 0 207-77 286-229 68-131 103-258 103-382" id="aM"/><path fill="#333" d="M430-1365c342 0 623 231 623 568 0 219-131 374-394 466 145 90 217 167 217 230 0 52-53 98-105 96-17 0-39-10-66-29-90-66-201-166-304-203v78C401-53 366 0 297 0c-53 0-99-44-99-97v-374c17-145 26-361 26-650-3 5-11 7-24 7-53 2-99-46-99-99 0-112 193-152 329-152zm258 786c221-128 209-317 20-469-89-71-178-111-268-119-1 97-1 329-1 698 89-27 172-65 249-110" id="aN"/><path fill="#333" d="M203-1149c-53 2-102-44-102-97 0-81 83-121 249-121 26 1 80 3 114 2 148 0 222 37 222 111 0 53-48 102-101 100-20 0-52-3-97-8-28 489-22 541-22 947 76-15 142 28 142 94 0 49-23 87-72 99-75 18-199 39-326 61-50 9-91-53-91-102 0-61 53-101 159-120-24-480-18-487 7-976-34 7-61 10-82 10" id="aO"/><path fill="#333" d="M981-266c49-2 92 51 92 99 0 65-78 111-235 140C740-9 634 0 521 0 381 0 189-69 189-191c0-93 52-207 157-340 30-39 126-147 289-324 104-113 157-190 157-232 0-53-70-80-210-80-152 0-488 76-488-91 0-143 266-107 411-107 340 0 510 87 510 261 0 71-44 165-136 278-136 168-404 420-475 602 150 56 400-33 577-42" id="aP"/><path fill="#333" d="M362 0C195 0 113-120 113-294c0-119 25-272 76-457 80-290 99-377 125-524 7-13 27-26 60-41 71-33 211-49 420-49 128 0 192 36 192 107 0 50-48 105-99 101-142-10-258-9-397 20-11 59-33 158-68 297 145-57 245-85 300-85 53 0 101 43 101 96 0 43-23 79-74 99-127 49-178 54-389 129-29 119-44 224-44 314 0 58 10 87 30 87 66 0 151-30 256-90s173-91 205-91c51 0 101 49 101 99 0 30-19 57-51 87C788-129 492 0 362 0" id="aQ"/><g id="s"><use transform="matrix(0.0087890625,0,0,0.0087890625,0,0)" xlink:href="#aI"/><use transform="matrix(0.0087890625,0,0,0.0087890625,9.9931640625,0)" xlink:href="#ab"/><use transform="matrix(0.0087890625,0,0,0.0087890625,20.7158203125,0)" xlink:href="#aJ"/><use transform="matrix(0.0087890625,0,0,0.0087890625,29.8212890625,0)" xlink:href="#aI"/><use transform="matrix(0.0087890625,0,0,0.0087890625,39.814453125,0)" xlink:href="#aK"/><use transform="matrix(0.0087890625,0,0,0.0087890625,49.095703125,0)" xlink:href="#aL"/><use transform="matrix(0.0087890625,0,0,0.0087890625,59.0537109375,0)" xlink:href="#aM"/><use transform="matrix(0.0087890625,0,0,0.0087890625,69.75,0)" xlink:href="#aN"/><use transform="matrix(0.0087890625,0,0,0.0087890625,79.69921875,0)" xlink:href="#aO"/><use transform="matrix(0.0087890625,0,0,0.0087890625,86.361328125,0)" xlink:href="#aP"/><use transform="matrix(0.0087890625,0,0,0.0087890625,96.6357421875,0)" xlink:href="#aQ"/><use transform="matrix(0.0087890625,0,0,0.0087890625,106.27734375,0)" xlink:href="#H"/></g><g id="t"><use transform="matrix(0.0087890625,0,0,0.0087890625,0,0)" xlink:href="#aJ"/><use transform="matrix(0.0087890625,0,0,0.0087890625,9.10546875,0)" xlink:href="#aI"/><use transform="matrix(0.0087890625,0,0,0.0087890625,19.0986328125,0)" xlink:href="#aK"/><use transform="matrix(0.0087890625,0,0,0.0087890625,28.3798828125,0)" xlink:href="#aL"/><use transform="matrix(0.0087890625,0,0,0.0087890625,38.337890625,0)" xlink:href="#aM"/><use transform="matrix(0.0087890625,0,0,0.0087890625,49.0341796875,0)" xlink:href="#aN"/><use transform="matrix(0.0087890625,0,0,0.0087890625,58.9833984375,0)" xlink:href="#aO"/><use transform="matrix(0.0087890625,0,0,0.0087890625,65.6455078125,0)" xlink:href="#aP"/><use transform="matrix(0.0087890625,0,0,0.0087890625,75.919921875,0)" xlink:href="#aQ"/><use transform="matrix(0.0087890625,0,0,0.0087890625,85.5615234375,0)" xlink:href="#H"/></g><path fill="#fff" d="M172-1273c0-51 55-92 106-92 37 0 64 24 92 68 37 59 126 327 147 375 45-73 86-148 133-220 69-105 130-155 174-155 52 0 105 52 103 104-20 75-241 385-311 490 18 36 85 160 200 372 65 118 97 196 97 234 1 55-42 97-97 97-43 0-105-70-183-212-16-29-60-123-136-281-43 69-136 292-221 411-25 35-56 50-87 50-84 0-113-73-88-151 12-39 108-216 290-529-146-314-219-501-219-561" id="aR"/><path fill="#fff" d="M806-1260c0-54 39-105 95-105 43 0 76 24 99 73 18 39 27 131 27 277 0 274-20 484-61 631C894-128 756 0 553 0 384 0 262-90 188-270c-51-126-77-289-77-488 0-289 18-467 53-534 26-49 59-73 99-73 53 0 105 52 99 104-14 128-48 300-48 513 0 128 14 239 41 332 41 144 108 216 201 216 105 0 180-98 226-293 29-124 44-265 44-422 0-66-20-279-20-345" id="aS"/><path fill="#fff" d="M46-1227c0-128 188-119 328-120 79-1 391-35 488-35 99 0 148 35 148 105 0 65-48 98-145 98-76 0-153 3-232 8 1 179-14 796-13 976C622-79 604-4 510 0c-53 2-99-44-99-97v-270c21-312 24-505 22-785-143 13-240 20-291 20-64 0-96-32-96-95" id="aT"/><g id="u"><use transform="matrix(0.0087890625,0,0,0.0087890625,0,0)" xlink:href="#ah"/><use transform="matrix(0.0087890625,0,0,0.0087890625,9.10546875,0)" xlink:href="#ai"/><use transform="matrix(0.0087890625,0,0,0.0087890625,18.4482421875,0)" xlink:href="#ai"/><use transform="matrix(0.0087890625,0,0,0.0087890625,27.791015625,0)" xlink:href="#aj"/><use transform="matrix(0.0087890625,0,0,0.0087890625,32.8447265625,0)" xlink:href="#ap"/><use transform="matrix(0.0087890625,0,0,0.0087890625,41.3525390625,0)" xlink:href="#as"/><use transform="matrix(0.0087890625,0,0,0.0087890625,52.0751953125,0)" xlink:href="#ae"/><use transform="matrix(0.0087890625,0,0,0.0087890625,64.9599609375,0)" xlink:href="#ae"/><use transform="matrix(0.0087890625,0,0,0.0087890625,77.8447265625,0)" xlink:href="#am"/><use transform="matrix(0.0087890625,0,0,0.0087890625,87.2314453125,0)" xlink:href="#at"/><use transform="matrix(0.0087890625,0,0,0.0087890625,97.9892578125,0)" xlink:href="#ar"/><use transform="matrix(0.0087890625,0,0,0.0087890625,107.947265625,0)" xlink:href="#aj"/><use transform="matrix(0.0087890625,0,0,0.0087890625,113.0009765625,0)" xlink:href="#ad"/><use transform="matrix(0.0087890625,0,0,0.0087890625,122.642578125,0)" xlink:href="#aR"/><use transform="matrix(0.0087890625,0,0,0.0087890625,131.625,0)" xlink:href="#ad"/><use transform="matrix(0.0087890625,0,0,0.0087890625,141.2666015625,0)" xlink:href="#aE"/><use transform="matrix(0.0087890625,0,0,0.0087890625,149.6689453125,0)" xlink:href="#aS"/><use transform="matrix(0.0087890625,0,0,0.0087890625,159.662109375,0)" xlink:href="#aT"/><use transform="matrix(0.0087890625,0,0,0.0087890625,168.943359375,0)" xlink:href="#ad"/><use transform="matrix(0.0087890625,0,0,0.0087890625,178.5849609375,0)" xlink:href="#aH"/></g></defs></g></svg>