<svg xmlns="http://www.w3.org/2000/svg" xmlns:xlink="http://www.w3.org/1999/xlink" xmlns:lucid="lucid" width="1360" height="606"><g transform="translate(0 -109)" lucid:page-tab-id="0_0"><path d="M100.74 205c0-2.76 2.24-5 5-5h158c2.76 0 5 2.24 5 5v66.8c0 2.77-2.24 5-5 5h-158c-2.76 0-5-2.23-5-5z" stroke="#000" stroke-opacity="0" stroke-width="2" fill="#113667"/><use xlink:href="#a" transform="matrix(1,0,0,1,105.73750000000044,205.00000000000003) translate(19.937499999999993 39.34375)"/><use xlink:href="#b" transform="matrix(1,0,0,1,105.73750000000044,205.00000000000003) translate(71.75173611111111 39.34375)"/><path d="M416 143.6c2.2-1.65 5.8-1.65 8 0l72 54c2.2 1.66 2.2 4.35 0 6l-72 54c-2.2 1.66-5.8 1.66-8 0l-72-54c-2.2-1.65-2.2-4.34 0-6z" stroke="#225798" stroke-width="4" fill="#fff"/><use xlink:href="#c" transform="matrix(1,0,0,1,345,145.6041964938767) translate(38.482050781249995 52.208984375)"/><use xlink:href="#d" transform="matrix(1,0,0,1,345,145.6041964938767) translate(41.066035156249995 70.7978515625)"/><path d="M340 305c0-2.76 2.24-5 5-5h150c2.76 0 5 2.24 5 5v66.8c0 2.77-2.24 5-5 5H345c-2.76 0-5-2.23-5-5z" stroke="#000" stroke-opacity="0" stroke-width="2" fill="#3278ca"/><use xlink:href="#e" transform="matrix(1,0,0,1,352,312) translate(1.40087890625 30.958984375)"/><use xlink:href="#f" transform="matrix(1,0,0,1,352,312) translate(52.65869140625 30.958984375)"/><path d="M269.74 238.4h22.63c6.63 0 12 5.38 12 12v76c0 6.63 5.37 12 12 12h5.13" stroke="#333" stroke-width="2" fill="none"/><path d="M269.76 239.4h-1.02v-2h1.02z" fill="#333"/><path d="M336.76 338.4l-14.26 4.64v-9.27z" stroke="#333" stroke-width="2" fill="#333"/><path d="M420 299v-19.63" stroke="#333" stroke-width="2" fill="none"/><path d="M421 300h-2v-1.03h2z" fill="#333"/><path d="M420 264.1l4.64 14.27h-9.28z" stroke="#333" stroke-width="2" fill="#333"/><path d="M560 305c0-2.76 2.24-5 5-5h150c2.76 0 5 2.24 5 5v66.8c0 2.77-2.24 5-5 5H565c-2.76 0-5-2.23-5-5z" stroke="#000" stroke-opacity="0" stroke-width="2" fill="#3278ca"/><use xlink:href="#e" transform="matrix(1,0,0,1,572,312) translate(1.40087890625 30.958984375)"/><use xlink:href="#f" transform="matrix(1,0,0,1,572,312) translate(52.65869140625 30.958984375)"/><path d="M805.84 165.57c2.3-1.54 6.02-1.54 8.32 0l81.68 54.45c2.3 1.53 2.3 4 0 5.55l-81.68 54.45c-2.3 1.53-6.02 1.53-8.32 0l-81.68-54.45c-2.3-1.54-2.3-4.02 0-5.55z" stroke="#225798" stroke-width="4" fill="#fff"/><use xlink:href="#c" transform="matrix(1,0,0,1,725,167.79247387392044) translate(48.482050781249995 52.208984375)"/><use xlink:href="#g" transform="matrix(1,0,0,1,725,167.79247387392044) translate(36.972773437499995 70.7978515625)"/><path d="M640 299v-64.2c0-6.63 5.37-12 12-12h50.14" stroke="#333" stroke-width="2" fill="none"/><path d="M641 300h-2v-1.03h2z" fill="#333"/><path d="M717.4 222.8l-14.26 4.63v-9.27z" stroke="#333" stroke-width="2" fill="#333"/><path d="M810 284.16v42.25c0 6.63-5.37 12-12 12h-59.5" stroke="#333" stroke-width="2" fill="none"/><path d="M810.2 283.18l.8-.1v1.1h-2v-1.13z" fill="#333"/><path d="M723.24 338.4l14.26-4.63v9.27z" stroke="#333" stroke-width="2" fill="#333"/><path d="M501 338.4h40.5" stroke="#333" stroke-width="2" fill="none"/><path d="M501.03 339.4H500v-2h1.03z" fill="#333"/><path d="M556.76 338.4l-14.26 4.64v-9.27z" stroke="#333" stroke-width="2" fill="#333"/><path d="M100.74 465c0-2.76 2.24-5 5-5h158c2.76 0 5 2.24 5 5v66.8c0 2.77-2.24 5-5 5h-158c-2.76 0-5-2.23-5-5z" stroke="#000" stroke-opacity="0" stroke-width="2" fill="#113667"/><use xlink:href="#h" transform="matrix(1,0,0,1,105.73750000000041,465) translate(20.76649305555555 28.875)"/><use xlink:href="#i" transform="matrix(1,0,0,1,105.73750000000041,465) translate(87.54600694444446 28.875)"/><use xlink:href="#j" transform="matrix(1,0,0,1,105.73750000000041,465) translate(49.451388888888886 47.234375)"/><path d="M640 377.8v28.6c0 6.63-5.37 12-12 12H196.74c-6.63 0-12 5.38-12 12v11.1" stroke="#333" stroke-width="2" fill="none"/><path d="M641 377.84h-2v-1.03h2z" fill="#333"/><path d="M184.74 456.76l-4.64-14.26h9.27z" stroke="#333" stroke-width="2" fill="#333"/><path d="M180.74 583c2.2-1.66 5.8-1.66 8 0l72 54c2.2 1.66 2.2 4.34 0 6l-72 54c-2.2 1.66-5.8 1.66-8 0l-72-54c-2.2-1.66-2.2-4.34 0-6z" stroke="#225798" stroke-width="4" fill="#fff"/><use xlink:href="#c" transform="matrix(1,0,0,1,109.73750000000041,585) translate(38.482050781249995 52.208984375)"/><use xlink:href="#k" transform="matrix(1,0,0,1,109.73750000000041,585) translate(36.416621093749995 70.7978515625)"/><path d="M920 148.6c0-4.4 3.58-8 8-8h124c4.42 0 8 3.6 8 8v439.6c0 4.42-3.58 8-8 8H928c-4.42 0-8-3.58-8-8z" fill="none"/><path d="M920 596.2c5.52 0 10-4.48 10-10V378.4c0-5.52 4.48-10 10-10-5.52 0-10-4.48-10-10V150.6c0-5.52-4.48-10-10-10" stroke="#333" stroke-width="2" fill="none"/><use xlink:href="#l" transform="matrix(1,0,0,1,955,145.6041964938767) translate(0 218.8076171875)"/><use xlink:href="#m" transform="matrix(1,0,0,1,955,145.6041964938767) translate(0 237.396484375)"/><path d="M780 725c0-2.76 2.24-5 5-5h210c2.76 0 5 2.24 5 5v66.8c0 2.77-2.24 5-5 5H785c-2.76 0-5-2.23-5-5z" stroke="#000" stroke-opacity="0" stroke-width="2" fill="#3278ca"/><use xlink:href="#n" transform="matrix(1,0,0,1,792,732) translate(80.1318359375 21.021484375)"/><use xlink:href="#o" transform="matrix(1,0,0,1,792,732) translate(8.6767578125 39.6103515625)"/><path d="M400 465c0-2.76 2.24-5 5-5h158c2.76 0 5 2.24 5 5v66.8c0 2.77-2.24 5-5 5H405c-2.76 0-5-2.23-5-5z" stroke="#000" stroke-opacity="0" stroke-width="2" fill="#113667"/><g><use xlink:href="#p" transform="matrix(1,0,0,1,405,465) translate(24.2126736111111 28.875)"/><use xlink:href="#q" transform="matrix(1,0,0,1,405,465) translate(120.63628472222223 28.875)"/><use xlink:href="#r" transform="matrix(1,0,0,1,405,465) translate(55.697048611111114 47.234375)"/></g><path d="M184.74 537.8v23.43" stroke="#333" stroke-width="2" fill="none"/><path d="M185.74 537.84h-2v-1.03h2z" fill="#333"/><path d="M184.74 576.5l-4.64-14.27h9.27z" stroke="#333" stroke-width="2" fill="#333"/><path d="M269.74 498.4H381.5" stroke="#333" stroke-width="2" fill="none"/><path d="M269.76 499.4h-1.02v-2h1.02z" fill="#333"/><path d="M396.76 498.4l-14.26 4.64v-9.27z" stroke="#333" stroke-width="2" fill="#333"/><defs><path fill="#fff" d="M196-1063c0-251 371-378 608-255 71 37 119 87 150 151 35 73-14 152-87 150-26 0-63-25-111-73s-102-72-162-72c-72 0-200 37-200 99 0 43 47 111 142 203 145 142 234 232 266 271 95 116 142 225 142 328C944-95 791 0 613 0 494 0 170-60 118-111c-29-29-48-55-48-87-1-69 67-120 140-92h-2c162 59 305 89 429 89 69 0 104-25 104-75 0-69-47-151-142-245-86-86-177-167-261-254-98-100-142-199-142-288" id="s"/><path fill="#fff" d="M46-1227c0-128 188-119 328-120 79-1 391-35 488-35 99 0 148 35 148 105 0 65-48 98-145 98-76 0-153 3-232 8 1 179-14 796-13 976C622-79 604-4 510 0c-53 2-99-44-99-97v-270c21-312 24-505 22-785-143 13-240 20-291 20-64 0-96-32-96-95" id="t"/><path fill="#fff" d="M922-654c-9 182 20 369 29 555 5 90-140 139-183 58-2-3-13-31-31-85-54-160-191-263-414-306-19 75-30 243-58 360-12 50-51 72-98 72-55 0-99-53-99-108 1-366 195-896 360-1117 69-92 141-140 222-140 182 0 273 207 273 621 0 19 1 49-1 90zM724-476v-400c-20-103-13-145-35-225-11-40-25-60-40-60-32 0-83 65-154 195-56 103-99 215-130 336 137 27 256 79 359 154" id="u"/><path fill="#fff" d="M432-1365c342 0 623 232 623 568 0 219-132 374-395 466 145 90 217 167 217 230 0 52-52 98-104 96-17 0-39-10-66-29-90-65-203-166-304-203v78C403-53 368 0 299 0c-53 0-99-44-99-97v-374c17-145 25-361 25-650-2 5-10 7-24 7-53 2-99-46-99-99 0-112 194-152 330-152zm257 786c221-128 209-317 21-469-89-71-178-111-268-119-1 97-2 329-2 698 90-27 172-66 249-110" id="v"/><g id="a"><use transform="matrix(0.008680555555555556,0,0,0.008680555555555556,0,0)" xlink:href="#s"/><use transform="matrix(0.008680555555555556,0,0,0.008680555555555556,9.270833333333334,0)" xlink:href="#t"/><use transform="matrix(0.008680555555555556,0,0,0.008680555555555556,18.454861111111114,0)" xlink:href="#u"/><use transform="matrix(0.008680555555555556,0,0,0.008680555555555556,27.72569444444445,0)" xlink:href="#v"/><use transform="matrix(0.008680555555555556,0,0,0.008680555555555556,37.40451388888889,0)" xlink:href="#t"/></g><path fill="#fff" d="M492-1365c272 0 549 114 549 360 0 140-81 265-244 374-130 87-276 146-439 180-7 56-15 301-32 372-12 53-46 79-94 79-53 0-99-48-99-101 0-201 55-864 50-1044-38-23-57-56-57-99 0-39 24-69 72-90s147-31 294-31zm348 355c0-132-280-161-454-151-1 136-2 303-2 501 100-31 192-72 276-122 120-70 180-146 180-228" id="w"/><path fill="#fff" d="M609-1364c323 0 519 229 519 557 0 183-51 357-152 522C860-95 716 0 544 0 271 0 97-283 97-570c0-191 38-362 113-512 95-188 228-282 399-282zm319 550c0-231-116-347-349-347-81 0-151 81-210 243-48 132-72 248-72 348 0 161 47 272 142 333 35 23 69 34 100 34 113 0 208-76 287-229 68-131 102-258 102-382" id="x"/><path fill="#fff" d="M773-362c52-3 103 50 103 101 0 27-17 56-48 89C762-102 548 0 418 0 210 0 81-204 84-422c3-221 73-486 152-640 103-201 220-303 358-303 167 0 251 128 251 385 0 123-35 185-106 185-48 0-101-46-99-94 2-77 27-278-39-278-46 0-94 47-150 138-89 144-168 415-168 602 0 146 56 219 169 219 46 0 106-26 180-77s122-77 141-77" id="y"/><path fill="#fff" d="M369 0C201 0 119-119 119-294c0-119 26-272 77-457 80-290 99-377 125-524 7-13 27-26 60-41 71-33 211-49 419-49 129 0 193 36 193 107 0 50-48 105-99 101-142-10-258-9-397 20-11 59-34 158-69 297 146-57 246-85 301-85 53 0 100 43 100 96 0 43-23 80-73 99-127 49-178 54-389 129-29 119-44 224-44 314 0 58 10 87 30 87 66 0 151-30 256-90s173-91 205-91c50 0 101 49 101 99 0 30-19 57-51 87C794-129 500 0 369 0" id="z"/><path fill="#fff" d="M196-1063c0-251 371-378 608-255 71 37 119 87 150 151 35 73-14 152-87 150-26 0-63-25-111-73s-102-72-162-72c-72 0-200 37-200 99 0 43 47 111 142 203 145 142 234 232 266 271 95 116 142 225 142 328C944-95 791 0 613 0 494 0 170-60 118-111c-29-29-48-55-48-87-1-69 67-120 140-92h-2c162 59 305 89 429 89 69 0 104-25 104-75 0-69-47-151-142-245-86-86-177-167-261-254-98-100-142-199-142-288" id="A"/><g id="b"><use transform="matrix(0.008680555555555556,0,0,0.008680555555555556,0,0)" xlink:href="#w"/><use transform="matrix(0.008680555555555556,0,0,0.008680555555555556,9.227430555555555,0)" xlink:href="#v"/><use transform="matrix(0.008680555555555556,0,0,0.008680555555555556,19.07986111111111,0)" xlink:href="#x"/><use transform="matrix(0.008680555555555556,0,0,0.008680555555555556,29.67013888888889,0)" xlink:href="#y"/><use transform="matrix(0.008680555555555556,0,0,0.008680555555555556,38.07291666666667,0)" xlink:href="#z"/><use transform="matrix(0.008680555555555556,0,0,0.008680555555555556,47.73437500000001,0)" xlink:href="#A"/><use transform="matrix(0.008680555555555556,0,0,0.008680555555555556,57.02256944444445,0)" xlink:href="#A"/></g><path fill="#333" d="M488-1365c273 0 550 113 550 360 0 140-81 265-244 374-130 87-276 146-439 180-8 56-16 299-32 372-12 53-47 79-94 79-53 0-99-48-99-101 0-200 54-864 49-1044-37-23-56-56-56-99 0-39 25-69 73-90s145-31 292-31zm348 355c0-132-280-161-454-151-1 136-1 303-1 501 100-31 192-72 276-122 119-70 179-146 179-228" id="B"/><path fill="#333" d="M432-1365c342 0 623 232 623 568 0 219-132 374-395 466 145 90 217 167 217 230 0 52-52 98-104 96-17 0-39-10-66-29-90-65-203-166-304-203v78C403-53 368 0 299 0c-53 0-99-44-99-97v-374c17-145 25-361 25-650-2 5-10 7-24 7-53 2-99-46-99-99 0-112 194-152 330-152zm257 786c221-128 209-317 21-469-89-71-178-111-268-119-1 97-2 329-2 698 90-27 172-66 249-110" id="C"/><path fill="#333" d="M609-1364c323 0 519 229 519 557 0 183-51 357-152 522C860-95 716 0 544 0 271 0 97-283 97-570c0-191 38-362 113-512 95-188 228-282 399-282zm319 550c0-231-116-347-349-347-81 0-151 81-210 243-48 132-72 248-72 348 0 161 47 272 142 333 35 23 69 34 100 34 113 0 208-76 287-229 68-131 102-258 102-382" id="D"/><path fill="#333" d="M925-1365c52 0 103 46 101 97 0 23-38 113-113 270-125 261-227 519-304 774-21 71-38 117-49 139-29 57-63 85-104 85-109-1-156-321-181-456-30-165-184-659-203-805-7-52 44-104 97-104 40 0 72 25 99 73 46 84 66 250 92 370 23 106 68 262 121 471 71-167 173-418 306-754 20-51 35-86 46-104 25-37 55-56 92-56" id="E"/><path fill="#333" d="M270-1365c53 0 101 46 100 99-5 357-80 777-80 1073C290-64 254 0 183 0 132 0 82-50 82-101c0-298 47-662 55-976 2-76 19-138 34-189 19-66 52-99 99-99" id="F"/><path fill="#333" d="M387-1365c369 0 678 217 678 573 0 172-83 346-249 522C647-90 478 0 307 0 194 0 137-80 137-239c0-257 30-558 68-915-53-11-80-43-80-95 0-56 32-93 97-108 26-6 81-8 165-8zm21 204c-15 76-47 491-72 917 0 13 1 27 2 41 116-22 231-92 346-210 120-123 180-241 180-355-1-196-67-277-209-343-74-35-157-50-247-50" id="G"/><path fill="#333" d="M369 0C201 0 119-119 119-294c0-119 26-272 77-457 80-290 99-377 125-524 7-13 27-26 60-41 71-33 211-49 419-49 129 0 193 36 193 107 0 50-48 105-99 101-142-10-258-9-397 20-11 59-34 158-69 297 146-57 246-85 301-85 53 0 100 43 100 96 0 43-23 80-73 99-127 49-178 54-389 129-29 119-44 224-44 314 0 58 10 87 30 87 66 0 151-30 256-90s173-91 205-91c50 0 101 49 101 99 0 30-19 57-51 87C794-129 500 0 369 0" id="H"/><g id="c"><use transform="matrix(0.0087890625,0,0,0.0087890625,0,0)" xlink:href="#B"/><use transform="matrix(0.0087890625,0,0,0.0087890625,9.31640625,0)" xlink:href="#C"/><use transform="matrix(0.0087890625,0,0,0.0087890625,19.2919921875,0)" xlink:href="#D"/><use transform="matrix(0.0087890625,0,0,0.0087890625,30.0146484375,0)" xlink:href="#E"/><use transform="matrix(0.0087890625,0,0,0.0087890625,39.4189453125,0)" xlink:href="#F"/><use transform="matrix(0.0087890625,0,0,0.0087890625,43.330078125,0)" xlink:href="#G"/><use transform="matrix(0.0087890625,0,0,0.0087890625,53.2880859375,0)" xlink:href="#H"/><use transform="matrix(0.0087890625,0,0,0.0087890625,63.0703125,0)" xlink:href="#C"/></g><path fill="#333" d="M671-1359c49 0 104 46 104 96 0 119-18 223-55 311-21 49-52 73-95 73-55 0-110-45-110-101 0-55 17-147 50-276 17-69 53-103 106-103zm-263 98c-1 51 7 235 7 286 0 52-51 98-103 98-76 0-114-129-114-386 0-58 48-102 106-102s106 45 104 104" id="I"/><path fill="#333" d="M111-254c0-80 75-479 73-483 3-23 17-167 40-434-41-20-62-51-62-94 0-67 48-100 145-100 431 0 647 127 647 380 0 161-86 280-258 359 120 81 180 177 180 290 0 173-116 256-272 302C530-12 459 0 391 0 204 0 111-85 111-254zm642-722c0-105-210-177-326-186-9 140-24 282-43 426 246-59 369-139 369-240zm-77 638c-27-89-136-153-326-193-27 162-48 229-34 323 82 18 157 3 237-24 75-26 116-61 123-106" id="J"/><path fill="#333" d="M46-1227c0-128 188-119 328-120 79-1 391-35 488-35 99 0 148 35 148 105 0 65-48 98-145 98-76 0-153 3-232 8 1 179-14 796-13 976C622-79 604-4 510 0c-53 2-99-44-99-97v-270c21-312 24-505 22-785-143 13-240 20-291 20-64 0-96-32-96-95" id="K"/><path fill="#333" d="M430-1365c53 0 103 46 101 99 6 2-144 293-135 283-45 115-67 263-67 445 0 89 34 260 81 437C412-48 357 0 305 0 176 0 126-356 126-531c0-295 57-536 171-723 45-74 89-111 133-111" id="L"/><path fill="#333" d="M218-1263c0-53 53-102 105-102 66 0 117 71 145 216 71 369 11 792-142 1038C281-38 239 0 196 0 144 0 87-46 92-99c2-26 67-122 87-155 105-188 159-578 72-860-24-76-33-126-33-149" id="M"/><g id="d"><use transform="matrix(0.0087890625,0,0,0.0087890625,0,0)" xlink:href="#I"/><use transform="matrix(0.0087890625,0,0,0.0087890625,8.47265625,0)" xlink:href="#J"/><use transform="matrix(0.0087890625,0,0,0.0087890625,17.595703125,0)" xlink:href="#D"/><use transform="matrix(0.0087890625,0,0,0.0087890625,28.318359375,0)" xlink:href="#D"/><use transform="matrix(0.0087890625,0,0,0.0087890625,39.041015625,0)" xlink:href="#K"/><use transform="matrix(0.0087890625,0,0,0.0087890625,48.33984375,0)" xlink:href="#L"/><use transform="matrix(0.0087890625,0,0,0.0087890625,53.859375,0)" xlink:href="#M"/><use transform="matrix(0.0087890625,0,0,0.0087890625,59.4052734375,0)" xlink:href="#I"/></g><path fill="#fff" d="M96-101c0-144 39-657 39-763 0-78 7-179 29-235 46-116 122-195 235-232 69-23 183-34 342-34 78 0 117 33 117 99 0 83-48 100-162 100-195-1-310 48-343 145-25 71-17 206-22 302 195-81 317-121 367-121 54 0 101 56 101 110 0 37-23 69-72 88-119 47-231 77-408 144-4 132 4 298-24 397C276-34 245 0 196 0 146 0 96-50 96-101" id="N"/><path fill="#fff" d="M925-1365c50 0 101 48 101 99 0 165-53 833-94 1164C923-33 882 0 831 0c-53 0-101-49-101-102 0-145 29-345 45-490-111 9-252 35-425 78-6 58-9 145-9 260 0 35-10 86-22 153C307-33 270 0 220 0c-53 0-103-48-102-101 6-372 65-764 56-1090-3-108 18-171 108-174 55-2 99 41 99 97v544c167-44 304-66 413-66 7-75 10-182 10-321 8-35 11-88 22-155s48-99 99-99" id="O"/><g id="e"><use transform="matrix(0.0087890625,0,0,0.0087890625,0,0)" xlink:href="#N"/><use transform="matrix(0.0087890625,0,0,0.0087890625,8.3408203125,0)" xlink:href="#z"/><use transform="matrix(0.0087890625,0,0,0.0087890625,18.123046875,0)" xlink:href="#t"/><use transform="matrix(0.0087890625,0,0,0.0087890625,27.421875,0)" xlink:href="#y"/><use transform="matrix(0.0087890625,0,0,0.0087890625,35.9296875,0)" xlink:href="#O"/></g><path fill="#fff" d="M488-1365c273 0 550 113 550 360 0 140-81 265-244 374-130 87-276 146-439 180-8 56-16 299-32 372-12 53-47 79-94 79-53 0-99-48-99-101 0-200 54-864 49-1044-37-23-56-56-56-99 0-39 25-69 73-90s145-31 292-31zm348 355c0-132-280-161-454-151-1 136-1 303-1 501 100-31 192-72 276-122 119-70 179-146 179-228" id="P"/><path fill="#fff" d="M925-1365c52 0 103 46 101 97 0 23-38 113-113 270-125 261-227 519-304 774-21 71-38 117-49 139-29 57-63 85-104 85-109-1-156-321-181-456-30-165-184-659-203-805-7-52 44-104 97-104 40 0 72 25 99 73 46 84 66 250 92 370 23 106 68 262 121 471 71-167 173-418 306-754 20-51 35-86 46-104 25-37 55-56 92-56" id="Q"/><path fill="#fff" d="M270-1365c53 0 101 46 100 99-5 357-80 777-80 1073C290-64 254 0 183 0 132 0 82-50 82-101c0-298 47-662 55-976 2-76 19-138 34-189 19-66 52-99 99-99" id="R"/><path fill="#fff" d="M387-1365c369 0 678 217 678 573 0 172-83 346-249 522C647-90 478 0 307 0 194 0 137-80 137-239c0-257 30-558 68-915-53-11-80-43-80-95 0-56 32-93 97-108 26-6 81-8 165-8zm21 204c-15 76-47 491-72 917 0 13 1 27 2 41 116-22 231-92 346-210 120-123 180-241 180-355-1-196-67-277-209-343-74-35-157-50-247-50" id="S"/><g id="f"><use transform="matrix(0.0087890625,0,0,0.0087890625,0,0)" xlink:href="#P"/><use transform="matrix(0.0087890625,0,0,0.0087890625,9.31640625,0)" xlink:href="#v"/><use transform="matrix(0.0087890625,0,0,0.0087890625,19.2919921875,0)" xlink:href="#x"/><use transform="matrix(0.0087890625,0,0,0.0087890625,30.0146484375,0)" xlink:href="#Q"/><use transform="matrix(0.0087890625,0,0,0.0087890625,39.4189453125,0)" xlink:href="#R"/><use transform="matrix(0.0087890625,0,0,0.0087890625,43.330078125,0)" xlink:href="#S"/><use transform="matrix(0.0087890625,0,0,0.0087890625,53.2880859375,0)" xlink:href="#z"/><use transform="matrix(0.0087890625,0,0,0.0087890625,63.0703125,0)" xlink:href="#v"/><use transform="matrix(0.0087890625,0,0,0.0087890625,72.5361328125,0)" xlink:href="#A"/></g><path fill="#333" d="M759-451c68-46 151 19 151 87 0 27-17 54-48 86C767-182 491 0 329 0 186 0 114-109 114-326c0-169 46-507 46-695 0-139-8-341 120-344 53-2 103 46 101 99-4-2-27 472-40 636-16 198-27 312-27 343 0 57 11 86 32 86 61 0 169-62 325-185 19-16 49-38 88-65" id="T"/><path fill="#333" d="M922-654c-9 182 20 369 29 555 5 90-140 139-183 58-2-3-13-31-31-85-54-160-191-263-414-306-19 75-30 243-58 360-12 50-51 72-98 72-55 0-99-53-99-108 1-366 195-896 360-1117 69-92 141-140 222-140 182 0 273 207 273 621 0 19 1 49-1 90zM724-476v-400c-20-103-13-145-35-225-11-40-25-60-40-60-32 0-83 65-154 195-56 103-99 215-130 336 137 27 256 79 359 154" id="U"/><path fill="#333" d="M96-101c0-144 39-657 39-763 0-78 7-179 29-235 46-116 122-195 235-232 69-23 183-34 342-34 78 0 117 33 117 99 0 83-48 100-162 100-195-1-310 48-343 145-25 71-17 206-22 302 195-81 317-121 367-121 54 0 101 56 101 110 0 37-23 69-72 88-119 47-231 77-408 144-4 132 4 298-24 397C276-34 245 0 196 0 146 0 96-50 96-101" id="V"/><g id="g"><use transform="matrix(0.0087890625,0,0,0.0087890625,0,0)" xlink:href="#I"/><use transform="matrix(0.0087890625,0,0,0.0087890625,8.47265625,0)" xlink:href="#T"/><use transform="matrix(0.0087890625,0,0,0.0087890625,16.5234375,0)" xlink:href="#D"/><use transform="matrix(0.0087890625,0,0,0.0087890625,27.24609375,0)" xlink:href="#U"/><use transform="matrix(0.0087890625,0,0,0.0087890625,36.6328125,0)" xlink:href="#G"/><use transform="matrix(0.0087890625,0,0,0.0087890625,46.5908203125,0)" xlink:href="#V"/><use transform="matrix(0.0087890625,0,0,0.0087890625,54.7822265625,0)" xlink:href="#F"/><use transform="matrix(0.0087890625,0,0,0.0087890625,58.693359375,0)" xlink:href="#T"/><use transform="matrix(0.0087890625,0,0,0.0087890625,66.744140625,0)" xlink:href="#H"/><use transform="matrix(0.0087890625,0,0,0.0087890625,76.5263671875,0)" xlink:href="#L"/><use transform="matrix(0.0087890625,0,0,0.0087890625,82.0458984375,0)" xlink:href="#M"/><use transform="matrix(0.0087890625,0,0,0.0087890625,87.591796875,0)" xlink:href="#I"/></g><path fill="#fff" d="M379-1365c368 0 677 218 677 573 0 172-83 346-249 522C639-90 470 0 299 0 185 0 128-80 128-239c0-257 31-558 68-915-53-11-80-43-80-95 0-56 32-93 97-108 26-6 82-8 166-8zm20 204c-15 77-48 489-71 917 0 13 0 27 1 41 116-22 232-92 347-210 119-123 179-241 179-355-1-195-66-277-208-343-75-35-158-50-248-50" id="W"/><g id="h"><use transform="matrix(0.008680555555555556,0,0,0.008680555555555556,0,0)" xlink:href="#W"/><use transform="matrix(0.008680555555555556,0,0,0.008680555555555556,9.722222222222223,0)" xlink:href="#R"/><use transform="matrix(0.008680555555555556,0,0,0.008680555555555556,13.585069444444446,0)" xlink:href="#A"/><use transform="matrix(0.008680555555555556,0,0,0.008680555555555556,22.873263888888893,0)" xlink:href="#y"/><use transform="matrix(0.008680555555555556,0,0,0.008680555555555556,31.27604166666667,0)" xlink:href="#x"/><use transform="matrix(0.008680555555555556,0,0,0.008680555555555556,41.86631944444444,0)" xlink:href="#v"/><use transform="matrix(0.008680555555555556,0,0,0.008680555555555556,51.71875000000001,0)" xlink:href="#S"/></g><path fill="#fff" d="M759-451c68-46 151 19 151 87 0 27-17 54-48 86C767-182 491 0 329 0 186 0 114-109 114-326c0-169 46-507 46-695 0-139-8-341 120-344 53-2 103 46 101 99-4-2-27 472-40 636-16 198-27 312-27 343 0 57 11 86 32 86 61 0 169-62 325-185 19-16 49-38 88-65" id="X"/><path fill="#fff" d="M829-1263c0-55 42-106 96-102 141 10 133 224 150 372 25 219 36 341 36 365 0 117-18 227-55 328C983-97 875 5 732 5 532 5 402-187 343-570c-16 123-24 243-24 360C319-70 282 0 207 0c-53 0-99-44-99-97 0-315 85-1025 186-1197 27-46 56-71 93-71 53 0 88 33 105 99 5 21 8 92 8 213 0 153 26 313 55 481 43 253 101 379 172 379 116 0 183-303 183-438 0-120-81-513-81-632" id="Y"/><g id="i"><use transform="matrix(0.008680555555555556,0,0,0.008680555555555556,0,0)" xlink:href="#y"/><use transform="matrix(0.008680555555555556,0,0,0.008680555555555556,8.402777777777779,0)" xlink:href="#X"/><use transform="matrix(0.008680555555555556,0,0,0.008680555555555556,16.354166666666668,0)" xlink:href="#R"/><use transform="matrix(0.008680555555555556,0,0,0.008680555555555556,20.21701388888889,0)" xlink:href="#z"/><use transform="matrix(0.008680555555555556,0,0,0.008680555555555556,29.878472222222218,0)" xlink:href="#Y"/><use transform="matrix(0.008680555555555556,0,0,0.008680555555555556,40.50347222222222,0)" xlink:href="#t"/></g><path fill="#fff" d="M671-1359c49 0 104 46 104 96 0 119-18 223-55 311-21 49-52 73-95 73-55 0-110-45-110-101 0-55 17-147 50-276 17-69 53-103 106-103zm-263 98c-1 51 7 235 7 286 0 52-51 98-103 98-76 0-114-129-114-386 0-58 48-102 106-102s106 45 104 104" id="Z"/><path fill="#fff" d="M621-594c163 0 326 124 326 282S736 5 573 0C387-6 235-158 176-307c-32-81-50-172-50-277 0-291 84-515 251-672 123-114 255-148 401-60 53 32 90 76 121 123 44 67-17 153-85 152-24 0-53-21-88-61s-68-60-100-60c-180 0-298 367-298 568 0 189 80 393 249 393 76 0 150-57 167-118-25-60-81-80-164-74-50 4-95-50-95-100 0-67 45-101 136-101" id="aa"/><g id="j"><use transform="matrix(0.008680555555555556,0,0,0.008680555555555556,0,0)" xlink:href="#Z"/><use transform="matrix(0.008680555555555556,0,0,0.008680555555555556,8.368055555555555,0)" xlink:href="#X"/><use transform="matrix(0.008680555555555556,0,0,0.008680555555555556,16.319444444444443,0)" xlink:href="#x"/><use transform="matrix(0.008680555555555556,0,0,0.008680555555555556,26.909722222222218,0)" xlink:href="#aa"/><use transform="matrix(0.008680555555555556,0,0,0.008680555555555556,36.24131944444444,0)" xlink:href="#R"/><use transform="matrix(0.008680555555555556,0,0,0.008680555555555556,40.10416666666666,0)" xlink:href="#Y"/><use transform="matrix(0.008680555555555556,0,0,0.008680555555555556,50.729166666666664,0)" xlink:href="#Z"/></g><path fill="#333" d="M534 0c-54 1-104-40-104-96 0-45 18-79 58-93 38-13 78-19 114-33 139-52 207-229 207-522-71 158-178 237-321 237-171 0-289-87-355-261-43-114-65-273-65-478 0-79 34-119 101-119 58 0 96 44 106 134 10 91 12 183 22 275 13 113 52 188 113 226 57 35 92 27 153-4 115-60 203-251 231-413 5-26 9-65 25-113s51-71 94-71c48 0 84 32 102 97 48 177 15 638-17 760-49 186-136 325-271 414C667-20 603 0 534 0" id="ab"/><g id="k"><use transform="matrix(0.0087890625,0,0,0.0087890625,0,0)" xlink:href="#I"/><use transform="matrix(0.0087890625,0,0,0.0087890625,8.47265625,0)" xlink:href="#C"/><use transform="matrix(0.0087890625,0,0,0.0087890625,18.4482421875,0)" xlink:href="#H"/><use transform="matrix(0.0087890625,0,0,0.0087890625,28.23046875,0)" xlink:href="#U"/><use transform="matrix(0.0087890625,0,0,0.0087890625,37.6171875,0)" xlink:href="#G"/><use transform="matrix(0.0087890625,0,0,0.0087890625,47.5751953125,0)" xlink:href="#ab"/><use transform="matrix(0.0087890625,0,0,0.0087890625,57.638671875,0)" xlink:href="#L"/><use transform="matrix(0.0087890625,0,0,0.0087890625,63.158203125,0)" xlink:href="#M"/><use transform="matrix(0.0087890625,0,0,0.0087890625,68.7041015625,0)" xlink:href="#I"/></g><path fill="#333" d="M920-744c0 218 15 427 27 645 5 89-139 139-182 58-3-3-13-32-31-85-53-161-192-263-415-306-18 75-30 243-58 360-12 50-50 72-97 72-56 0-99-53-99-108 1-367 194-896 360-1117 69-92 141-140 222-140 182 0 273 207 273 621zM720-476v-400c-19-103-12-145-34-225-11-40-25-60-41-60-32 0-83 65-153 195-56 103-99 215-130 336 137 27 256 79 358 154" id="ac"/><path fill="#333" d="M492-1365c272 0 549 114 549 360 0 140-81 265-244 374-130 87-276 146-439 180-7 56-15 301-32 372-12 53-46 79-94 79-53 0-99-48-99-101 0-201 55-864 50-1044-38-23-57-56-57-99 0-39 24-69 72-90s147-31 294-31zm348 355c0-132-280-161-454-151-1 136-2 303-2 501 100-31 192-72 276-122 120-70 180-146 180-228" id="ad"/><path fill="#333" d="M773-362c52-3 103 50 103 101 0 27-17 56-48 89C762-102 548 0 418 0 210 0 81-204 84-422c3-221 73-486 152-640 103-201 220-303 358-303 167 0 251 128 251 385 0 123-35 185-106 185-48 0-101-46-99-94 2-77 27-278-39-278-46 0-94 47-150 138-89 144-168 415-168 602 0 146 56 219 169 219 46 0 106-26 180-77s122-77 141-77" id="ae"/><path fill="#333" d="M829-1263c0-55 42-106 96-102 141 10 133 224 150 372 25 219 36 341 36 365 0 117-18 227-55 328C983-97 875 5 732 5 532 5 402-187 343-570c-16 123-24 243-24 360C319-70 282 0 207 0c-53 0-99-44-99-97 0-315 85-1025 186-1197 27-46 56-71 93-71 53 0 88 33 105 99 5 21 8 92 8 213 0 153 26 313 55 481 43 253 101 379 172 379 116 0 183-303 183-438 0-120-81-513-81-632" id="af"/><g id="l"><use transform="matrix(0.0087890625,0,0,0.0087890625,0,0)" xlink:href="#ac"/><use transform="matrix(0.0087890625,0,0,0.0087890625,9.10546875,0)" xlink:href="#ad"/><use transform="matrix(0.0087890625,0,0,0.0087890625,18.4482421875,0)" xlink:href="#ad"/><use transform="matrix(0.0087890625,0,0,0.0087890625,27.791015625,0)" xlink:href="#T"/><use transform="matrix(0.0087890625,0,0,0.0087890625,35.841796875,0)" xlink:href="#F"/><use transform="matrix(0.0087890625,0,0,0.0087890625,39.7529296875,0)" xlink:href="#ae"/><use transform="matrix(0.0087890625,0,0,0.0087890625,48.2607421875,0)" xlink:href="#U"/><use transform="matrix(0.0087890625,0,0,0.0087890625,57.6474609375,0)" xlink:href="#K"/><use transform="matrix(0.0087890625,0,0,0.0087890625,66.9462890625,0)" xlink:href="#F"/><use transform="matrix(0.0087890625,0,0,0.0087890625,70.857421875,0)" xlink:href="#D"/><use transform="matrix(0.0087890625,0,0,0.0087890625,81.580078125,0)" xlink:href="#af"/></g><path fill="#333" d="M108-101c0-144 39-657 39-763 0-78 7-179 29-235 46-116 122-195 235-232 69-23 183-34 342-34 78 0 117 33 117 99 0 83-48 100-162 100-195-1-308 48-343 145-25 70-17 205-22 302 195-81 317-121 367-121 54 0 101 56 101 110 0 37-23 69-72 88-119 47-231 77-408 144-1 97 0 317-24 397C287-35 257 0 208 0c-50 0-100-50-100-101" id="ag"/><g id="m"><use transform="matrix(0.0087890625,0,0,0.0087890625,0,0)" xlink:href="#T"/><use transform="matrix(0.0087890625,0,0,0.0087890625,8.05078125,0)" xlink:href="#F"/><use transform="matrix(0.0087890625,0,0,0.0087890625,11.9619140625,0)" xlink:href="#ag"/><use transform="matrix(0.0087890625,0,0,0.0087890625,19.79296875,0)" xlink:href="#H"/><use transform="matrix(0.0087890625,0,0,0.0087890625,29.5751953125,0)" xlink:href="#ae"/><use transform="matrix(0.0087890625,0,0,0.0087890625,38.0830078125,0)" xlink:href="#ab"/><use transform="matrix(0.0087890625,0,0,0.0087890625,48.146484375,0)" xlink:href="#ae"/><use transform="matrix(0.0087890625,0,0,0.0087890625,56.654296875,0)" xlink:href="#T"/><use transform="matrix(0.0087890625,0,0,0.0087890625,64.705078125,0)" xlink:href="#H"/></g><path fill="#fff" d="M362 0C195 0 113-120 113-294c0-119 25-272 76-457 80-290 99-377 125-524 7-13 27-26 60-41 71-33 211-49 420-49 128 0 192 36 192 107 0 50-48 105-99 101-142-10-258-9-397 20-11 59-33 158-68 297 145-57 245-85 300-85 53 0 101 43 101 96 0 43-23 79-74 99-127 49-178 54-389 129-29 119-44 224-44 314 0 58 10 87 30 87 66 0 151-30 256-90s173-91 205-91c51 0 101 49 101 99 0 30-19 57-51 87C788-129 492 0 362 0" id="ah"/><path fill="#fff" d="M188 0C127 1 82-61 96-128c102-498 136-682 239-1056 16-58 29-97 39-118 39-81 152-87 186 3 8 21 18 60 27 118 29 181 79 412 149 693 44-195 133-594 228-824 15-37 48-53 86-53 50 0 89 31 100 97 19 117 18 225 53 381 45 201 158 605 162 785 1 54-41 102-95 102-46 0-83-20-96-65-38-130-44-258-87-432-40-161-61-264-70-309-35 138-86 345-147 622-13 58-23 96-30 117-29 83-132 87-176 19-11-18-25-49-39-97-63-219-122-453-173-703-35 145-85 365-140 660-11 60-19 101-29 123-20 43-51 65-95 65" id="ai"/><g id="n"><use transform="matrix(0.0087890625,0,0,0.0087890625,0,0)" xlink:href="#ah"/><use transform="matrix(0.0087890625,0,0,0.0087890625,9.6416015625,0)" xlink:href="#ai"/><use transform="matrix(0.0087890625,0,0,0.0087890625,22.5263671875,0)" xlink:href="#R"/><use transform="matrix(0.0087890625,0,0,0.0087890625,26.4375,0)" xlink:href="#t"/></g><path fill="#fff" d="M920-744c0 218 15 427 27 645 5 89-139 139-182 58-3-3-13-32-31-85-53-161-192-263-415-306-18 75-30 243-58 360-12 50-50 72-97 72-56 0-99-53-99-108 1-367 194-896 360-1117 69-92 141-140 222-140 182 0 273 207 273 621zM720-476v-400c-19-103-12-145-34-225-11-40-25-60-41-60-32 0-83 65-153 195-56 103-99 215-130 336 137 27 256 79 358 154" id="aj"/><path fill="#fff" d="M268-847c61 0 138 58 138 120s-57 130-121 130c-60 0-125-53-125-113 0-72 40-137 108-137zm-96 728c0-58 89-135 145-135 72 0 108 42 108 126C399-70 383-1 305 0c-62 1-133-56-133-119" id="ak"/><g id="o"><use transform="matrix(0.0087890625,0,0,0.0087890625,0,0)" xlink:href="#aj"/><use transform="matrix(0.0087890625,0,0,0.0087890625,9.10546875,0)" xlink:href="#w"/><use transform="matrix(0.0087890625,0,0,0.0087890625,18.4482421875,0)" xlink:href="#w"/><use transform="matrix(0.0087890625,0,0,0.0087890625,27.791015625,0)" xlink:href="#ak"/><use transform="matrix(0.0087890625,0,0,0.0087890625,32.8447265625,0)" xlink:href="#ai"/><use transform="matrix(0.0087890625,0,0,0.0087890625,45.7294921875,0)" xlink:href="#z"/><use transform="matrix(0.0087890625,0,0,0.0087890625,55.51171875,0)" xlink:href="#A"/><use transform="matrix(0.0087890625,0,0,0.0087890625,64.916015625,0)" xlink:href="#A"/><use transform="matrix(0.0087890625,0,0,0.0087890625,74.3203125,0)" xlink:href="#u"/><use transform="matrix(0.0087890625,0,0,0.0087890625,83.49609375,0)" xlink:href="#aa"/><use transform="matrix(0.0087890625,0,0,0.0087890625,92.70703125,0)" xlink:href="#z"/><use transform="matrix(0.0087890625,0,0,0.0087890625,102.4892578125,0)" xlink:href="#ak"/><use transform="matrix(0.0087890625,0,0,0.0087890625,107.54296875,0)" xlink:href="#v"/><use transform="matrix(0.0087890625,0,0,0.0087890625,117.5185546875,0)" xlink:href="#z"/><use transform="matrix(0.0087890625,0,0,0.0087890625,127.30078125,0)" xlink:href="#y"/><use transform="matrix(0.0087890625,0,0,0.0087890625,135.80859375,0)" xlink:href="#z"/><use transform="matrix(0.0087890625,0,0,0.0087890625,145.5908203125,0)" xlink:href="#R"/><use transform="matrix(0.0087890625,0,0,0.0087890625,149.501953125,0)" xlink:href="#Q"/><use transform="matrix(0.0087890625,0,0,0.0087890625,158.90625,0)" xlink:href="#z"/><use transform="matrix(0.0087890625,0,0,0.0087890625,168.6884765625,0)" xlink:href="#S"/></g><g id="p"><use transform="matrix(0.008680555555555556,0,0,0.008680555555555556,0,0)" xlink:href="#aj"/><use transform="matrix(0.008680555555555556,0,0,0.008680555555555556,8.993055555555557,0)" xlink:href="#w"/><use transform="matrix(0.008680555555555556,0,0,0.008680555555555556,18.220486111111114,0)" xlink:href="#w"/><use transform="matrix(0.008680555555555556,0,0,0.008680555555555556,27.44791666666667,0)" xlink:href="#X"/><use transform="matrix(0.008680555555555556,0,0,0.008680555555555556,35.39930555555556,0)" xlink:href="#R"/><use transform="matrix(0.008680555555555556,0,0,0.008680555555555556,39.26215277777778,0)" xlink:href="#y"/><use transform="matrix(0.008680555555555556,0,0,0.008680555555555556,47.66493055555556,0)" xlink:href="#u"/><use transform="matrix(0.008680555555555556,0,0,0.008680555555555556,56.93576388888889,0)" xlink:href="#t"/><use transform="matrix(0.008680555555555556,0,0,0.008680555555555556,66.11979166666667,0)" xlink:href="#R"/><use transform="matrix(0.008680555555555556,0,0,0.008680555555555556,69.9826388888889,0)" xlink:href="#x"/><use transform="matrix(0.008680555555555556,0,0,0.008680555555555556,80.57291666666669,0)" xlink:href="#Y"/></g><g id="q"><use transform="matrix(0.008680555555555556,0,0,0.008680555555555556,0,0)" xlink:href="#R"/><use transform="matrix(0.008680555555555556,0,0,0.008680555555555556,3.8628472222222223,0)" xlink:href="#A"/></g><g id="r"><use transform="matrix(0.008680555555555556,0,0,0.008680555555555556,0,0)" xlink:href="#A"/><use transform="matrix(0.008680555555555556,0,0,0.008680555555555556,9.288194444444445,0)" xlink:href="#t"/><use transform="matrix(0.008680555555555556,0,0,0.008680555555555556,18.47222222222222,0)" xlink:href="#u"/><use transform="matrix(0.008680555555555556,0,0,0.008680555555555556,27.743055555555557,0)" xlink:href="#v"/><use transform="matrix(0.008680555555555556,0,0,0.008680555555555556,37.421875,0)" xlink:href="#t"/></g></defs></g></svg>